<svg width="22" height="22" viewBox="0 0 22 22" fill="none" xmlns="http://www.w3.org/2000/svg">
<path d="M11.7718 10.329L11.7721 10.329L11.7712 10.3223C11.719 9.93778 11.3896 9.64149 10.9908 9.64149C10.5559 9.64149 10.2033 9.99406 10.2033 10.429V14.4797H10.2031L10.2036 14.4864L10.2098 14.5797L10.2096 14.5798L10.2105 14.5865C10.2627 14.9709 10.5921 15.2672 10.9908 15.2672C11.4258 15.2672 11.7783 14.9147 11.7783 14.4797V10.429H11.7786L11.7781 10.4223L11.7718 10.329ZM11 6.73309V6.7329L10.9939 6.73327L10.8914 6.73955L10.8914 6.73928L10.8841 6.74027C10.4996 6.79243 10.2033 7.12183 10.2033 7.52059C10.2033 7.95551 10.5559 8.30809 10.9908 8.30809V8.30827L10.997 8.3079L11.0994 8.30162L11.0994 8.3019L11.1067 8.3009C11.4912 8.24874 11.7875 7.91935 11.7875 7.52059C11.7875 7.08566 11.4349 6.73309 11 6.73309ZM20.2673 7.2565C20.2673 5.63674 19.7415 4.2551 18.813 3.27764C17.8839 2.29969 16.5584 1.7335 14.9735 1.7335H7.0269C5.4448 1.7335 4.11951 2.30046 3.19003 3.2787C2.26101 4.25646 1.73398 5.63808 1.73398 7.2565V14.7438C1.73398 16.3637 2.25956 17.7453 3.18794 18.7227C4.11677 19.7007 5.4421 20.2668 7.0269 20.2668H14.9726C16.5578 20.2668 17.8836 19.7007 18.8128 18.7228C19.7415 17.7453 20.2673 16.3637 20.2673 14.7438V7.2565ZM7.0269 3.3085H14.9735C16.1189 3.3085 17.0458 3.69744 17.6868 4.37938C18.3284 5.06199 18.6923 6.04765 18.6923 7.2565V14.7438C18.6923 15.9527 18.3284 16.9384 17.6866 17.621C17.0455 18.3029 16.1184 18.6918 14.9726 18.6918H7.0269C5.88162 18.6918 4.95495 18.3029 4.31417 17.6211C3.67276 16.9385 3.30898 15.9528 3.30898 14.7438V7.2565C3.30898 6.04932 3.67397 5.06362 4.31608 4.38055C4.95756 3.69815 5.88429 3.3085 7.0269 3.3085Z" fill="#0F0F0F" stroke="#0F0F0F" stroke-width="0.2" stroke-linejoin="round"/>
</svg>
