<svg width="186" height="59" viewBox="0 0 186 59" fill="none" xmlns="http://www.w3.org/2000/svg">
<path d="M1.53535 22C1.35416 22 1.20318 21.9396 1.08239 21.8188C0.961605 21.698 0.901211 21.547 0.901211 21.3659L0.961605 21.0941L8.20886 1.61711C8.41017 1.11383 8.77253 0.862185 9.29594 0.862185H12.6176C13.141 0.862185 13.5034 1.11383 13.7047 1.61711L20.9519 21.0941L21.0123 21.3659C21.0123 21.547 20.9419 21.698 20.801 21.8188C20.6802 21.9396 20.5392 22 20.3782 22H17.6907C17.2679 22 16.976 21.8088 16.815 21.4263L15.4259 17.7724H6.48763L5.09858 21.4263C4.93753 21.8088 4.64562 22 4.22287 22H1.53535ZM7.54452 14.2696H14.369L10.9568 4.96896L7.54452 14.2696ZM23.564 27.7374C23.3627 27.7374 23.1916 27.6669 23.0507 27.526C22.9098 27.4052 22.8393 27.2341 22.8393 27.0127V7.02235C22.8393 6.8009 22.9098 6.62979 23.0507 6.509C23.1916 6.36808 23.3627 6.29762 23.564 6.29762H25.9798C26.2012 6.29762 26.3824 6.36808 26.5233 6.509C26.6643 6.64992 26.7347 6.82104 26.7347 7.02235V8.23022C27.8017 6.74051 29.4021 5.99565 31.536 5.99565C33.5693 5.99565 35.1295 6.63985 36.2165 7.92825C37.3036 9.19652 37.8874 10.9077 37.968 13.0617C37.9881 13.3033 37.9982 13.6657 37.9982 14.1488C37.9982 14.632 37.9881 14.9943 37.968 15.2359C37.9076 17.3497 37.3238 19.0608 36.2165 20.3694C35.1295 21.6578 33.5693 22.302 31.536 22.302C29.5229 22.302 27.9829 21.5873 26.9159 20.158V27.0127C26.9159 27.2341 26.8454 27.4052 26.7045 27.526C26.5837 27.6669 26.4126 27.7374 26.1912 27.7374H23.564ZM30.3885 19.0407C32.5426 19.0407 33.6901 17.712 33.831 15.0547C33.8511 14.8534 33.8612 14.5514 33.8612 14.1488C33.8612 13.7462 33.8511 13.4442 33.831 13.2429C33.6901 10.5856 32.5426 9.25692 30.3885 9.25692C29.2411 9.25692 28.3855 9.62935 27.8218 10.3742C27.2581 11.1191 26.9562 12.025 26.9159 13.0919C26.8958 13.3335 26.8857 13.716 26.8857 14.2394C26.8857 14.7628 26.8958 15.1554 26.9159 15.4171C26.9562 16.4236 27.2682 17.2792 27.852 17.9838C28.4358 18.6884 29.2813 19.0407 30.3885 19.0407ZM41.4836 27.7374C41.2823 27.7374 41.1112 27.6669 40.9703 27.526C40.8293 27.4052 40.7589 27.2341 40.7589 27.0127V7.02235C40.7589 6.8009 40.8293 6.62979 40.9703 6.509C41.1112 6.36808 41.2823 6.29762 41.4836 6.29762H43.8994C44.1208 6.29762 44.302 6.36808 44.4429 6.509C44.5838 6.64992 44.6543 6.82104 44.6543 7.02235V8.23022C45.7212 6.74051 47.3217 5.99565 49.4556 5.99565C51.4888 5.99565 53.049 6.63985 54.1361 7.92825C55.2232 9.19652 55.807 10.9077 55.8875 13.0617C55.9077 13.3033 55.9177 13.6657 55.9177 14.1488C55.9177 14.632 55.9077 14.9943 55.8875 15.2359C55.8271 17.3497 55.2433 19.0608 54.1361 20.3694C53.049 21.6578 51.4888 22.302 49.4556 22.302C47.4425 22.302 45.9024 21.5873 44.8355 20.158V27.0127C44.8355 27.2341 44.765 27.4052 44.6241 27.526C44.5033 27.6669 44.3322 27.7374 44.1107 27.7374H41.4836ZM48.3081 19.0407C50.4621 19.0407 51.6096 17.712 51.7505 15.0547C51.7707 14.8534 51.7807 14.5514 51.7807 14.1488C51.7807 13.7462 51.7707 13.4442 51.7505 13.2429C51.6096 10.5856 50.4621 9.25692 48.3081 9.25692C47.1606 9.25692 46.305 9.62935 45.7414 10.3742C45.1777 11.1191 44.8757 12.025 44.8355 13.0919C44.8153 13.3335 44.8053 13.716 44.8053 14.2394C44.8053 14.7628 44.8153 15.1554 44.8355 15.4171C44.8757 16.4236 45.1878 17.2792 45.7716 17.9838C46.3554 18.6884 47.2009 19.0407 48.3081 19.0407ZM65.6237 22.302C63.2482 22.302 61.4163 21.698 60.1279 20.4902C58.8395 19.2823 58.145 17.6114 58.0443 15.4775L58.0141 14.1488L58.0443 12.8201C58.145 10.7064 58.8496 9.04554 60.1581 7.83766C61.4666 6.60966 63.2885 5.99565 65.6237 5.99565C67.9388 5.99565 69.7506 6.60966 71.0592 7.83766C72.3677 9.04554 73.0723 10.7064 73.173 12.8201C73.1931 13.0617 73.2032 13.5046 73.2032 14.1488C73.2032 14.793 73.1931 15.2359 73.173 15.4775C73.0723 17.6114 72.3778 19.2823 71.0894 20.4902C69.801 21.698 67.9791 22.302 65.6237 22.302ZM65.6237 19.2521C66.6907 19.2521 67.506 18.9199 68.0697 18.2556C68.6535 17.5913 68.9655 16.6149 69.0058 15.3265C69.0259 15.1252 69.036 14.7326 69.036 14.1488C69.036 13.565 69.0259 13.1724 69.0058 12.9711C68.9655 11.6827 68.6535 10.7064 68.0697 10.042C67.4859 9.35757 66.6706 9.01534 65.6237 9.01534C64.5568 9.01534 63.7314 9.35757 63.1476 10.042C62.5638 10.7064 62.2518 11.6827 62.2115 12.9711L62.1813 14.1488L62.2115 15.3265C62.2518 16.6149 62.5638 17.5913 63.1476 18.2556C63.7314 18.9199 64.5568 19.2521 65.6237 19.2521ZM76.523 3.73089C76.3217 3.73089 76.1506 3.66043 76.0096 3.51951C75.8687 3.37859 75.7983 3.20748 75.7983 3.00616V0.801792C75.7983 0.580348 75.8687 0.399166 76.0096 0.258248C76.1506 0.117329 76.3217 0.046869 76.523 0.046869H79.3011C79.5226 0.046869 79.7037 0.117329 79.8447 0.258248C79.9856 0.399166 80.056 0.580348 80.056 0.801792V3.00616C80.056 3.20748 79.9755 3.37859 79.8145 3.51951C79.6735 3.66043 79.5024 3.73089 79.3011 3.73089H76.523ZM76.6438 22C76.4425 22 76.2714 21.9295 76.1304 21.7886C75.9895 21.6477 75.9191 21.4766 75.9191 21.2753V7.02235C75.9191 6.8009 75.9895 6.62979 76.1304 6.509C76.2714 6.36808 76.4425 6.29762 76.6438 6.29762H79.2105C79.4118 6.29762 79.5829 6.36808 79.7239 6.509C79.8648 6.64992 79.9352 6.82104 79.9352 7.02235V21.2753C79.9352 21.4766 79.8648 21.6477 79.7239 21.7886C79.5829 21.9295 79.4118 22 79.2105 22H76.6438ZM84.0062 22C83.8049 22 83.6338 21.9295 83.4929 21.7886C83.352 21.6477 83.2815 21.4766 83.2815 21.2753V7.02235C83.2815 6.8009 83.352 6.62979 83.4929 6.509C83.6338 6.36808 83.8049 6.29762 84.0062 6.29762H86.5126C86.734 6.29762 86.9051 6.36808 87.0259 6.509C87.1668 6.62979 87.2373 6.8009 87.2373 7.02235V8.26042C88.4653 6.75058 90.1463 5.99565 92.2802 5.99565C94.1323 5.99565 95.6018 6.59959 96.6889 7.80747C97.776 9.01534 98.3196 10.6762 98.3196 12.79V21.2753C98.3196 21.4766 98.2491 21.6477 98.1082 21.7886C97.9874 21.9295 97.8163 22 97.5948 22H94.8771C94.6758 22 94.5047 21.9295 94.3638 21.7886C94.2229 21.6477 94.1524 21.4766 94.1524 21.2753V12.9711C94.1524 11.8035 93.8605 10.8976 93.2767 10.2534C92.713 9.58908 91.8977 9.25692 90.8307 9.25692C89.804 9.25692 88.9787 9.58908 88.3546 10.2534C87.7305 10.9177 87.4185 11.8237 87.4185 12.9711V21.2753C87.4185 21.4766 87.348 21.6477 87.2071 21.7886C87.0863 21.9295 86.9152 22 86.6938 22H84.0062ZM108.475 22C106.643 22 105.264 21.5269 104.338 20.5807C103.412 19.6144 102.949 18.2053 102.949 16.3532V9.52869H100.563C100.362 9.52869 100.191 9.45823 100.05 9.31731C99.9091 9.17639 99.8387 9.00528 99.8387 8.80396V7.02235C99.8387 6.82104 99.9091 6.64992 100.05 6.509C100.191 6.36808 100.362 6.29762 100.563 6.29762H102.949V1.28494C102.949 1.0635 103.019 0.892383 103.16 0.771596C103.301 0.630676 103.472 0.560217 103.674 0.560217H106.18C106.401 0.560217 106.573 0.630676 106.693 0.771596C106.834 0.892383 106.905 1.0635 106.905 1.28494V6.29762H110.679C110.881 6.29762 111.052 6.36808 111.193 6.509C111.334 6.64992 111.404 6.82104 111.404 7.02235V8.80396C111.404 9.00528 111.334 9.17639 111.193 9.31731C111.052 9.45823 110.881 9.52869 110.679 9.52869H106.905V16.021C106.905 16.8867 107.056 17.5409 107.358 17.9838C107.66 18.4267 108.153 18.6481 108.837 18.6481H110.951C111.173 18.6481 111.344 18.7186 111.464 18.8595C111.605 18.9803 111.676 19.1514 111.676 19.3729V21.2753C111.676 21.4766 111.605 21.6477 111.464 21.7886C111.344 21.9295 111.173 22 110.951 22H108.475ZM114.449 22C114.248 22 114.076 21.9295 113.936 21.7886C113.795 21.6477 113.724 21.4766 113.724 21.2753V7.02235C113.724 6.8009 113.795 6.62979 113.936 6.509C114.076 6.36808 114.248 6.29762 114.449 6.29762H116.834C117.056 6.29762 117.227 6.36808 117.348 6.509C117.489 6.62979 117.559 6.8009 117.559 7.02235V8.04904C118.646 6.68012 120.106 5.99565 121.938 5.99565C124.172 5.99565 125.732 6.8915 126.618 8.68318C127.101 7.87793 127.786 7.23373 128.672 6.75058C129.557 6.2473 130.514 5.99565 131.54 5.99565C133.191 5.99565 134.54 6.55933 135.587 7.68668C136.633 8.81403 137.157 10.4547 137.157 12.6088V21.2753C137.157 21.4766 137.086 21.6477 136.946 21.7886C136.825 21.9295 136.654 22 136.432 22H133.926C133.725 22 133.553 21.9295 133.412 21.7886C133.272 21.6477 133.201 21.4766 133.201 21.2753V12.8503C133.201 11.5821 132.929 10.6661 132.386 10.1024C131.862 9.53875 131.168 9.25692 130.302 9.25692C129.517 9.25692 128.843 9.54882 128.279 10.1326C127.735 10.6963 127.464 11.6022 127.464 12.8503V21.2753C127.464 21.4766 127.393 21.6477 127.252 21.7886C127.132 21.9295 126.96 22 126.739 22H124.202C124.001 22 123.83 21.9295 123.689 21.7886C123.548 21.6477 123.478 21.4766 123.478 21.2753V12.8503C123.478 11.6022 123.206 10.6963 122.662 10.1326C122.119 9.54882 121.424 9.25692 120.579 9.25692C119.794 9.25692 119.119 9.54882 118.556 10.1326C118.012 10.6963 117.74 11.6022 117.74 12.8503V21.2753C117.74 21.4766 117.67 21.6477 117.529 21.7886C117.408 21.9295 117.237 22 117.016 22H114.449ZM147.167 22.302C144.912 22.302 143.12 21.6578 141.792 20.3694C140.483 19.081 139.789 17.249 139.708 14.8735L139.678 14.1186C139.678 11.6022 140.332 9.61928 141.641 8.16983C142.969 6.72038 144.801 5.99565 147.137 5.99565C149.532 5.99565 151.374 6.72038 152.663 8.16983C153.971 9.61928 154.625 11.5519 154.625 13.9676V14.6018C154.625 14.8031 154.555 14.9742 154.414 15.1151C154.273 15.256 154.092 15.3265 153.87 15.3265H143.845V15.5681C143.885 16.6954 144.187 17.6315 144.751 18.3764C145.335 19.1011 146.13 19.4635 147.137 19.4635C148.284 19.4635 149.22 19.0004 149.945 18.0744C150.126 17.853 150.267 17.7221 150.368 17.6818C150.468 17.6215 150.639 17.5913 150.881 17.5913H153.538C153.72 17.5913 153.87 17.6416 153.991 17.7422C154.132 17.8429 154.203 17.9838 154.203 18.165C154.203 18.6481 153.911 19.2219 153.327 19.8862C152.763 20.5304 151.948 21.0941 150.881 21.5772C149.814 22.0604 148.576 22.302 147.167 22.302ZM150.458 12.7598V12.6994C150.458 11.5116 150.156 10.5654 149.552 9.86086C148.969 9.13613 148.163 8.77377 147.137 8.77377C146.11 8.77377 145.305 9.13613 144.721 9.86086C144.137 10.5654 143.845 11.5116 143.845 12.6994V12.7598H150.458ZM157.926 22C157.724 22 157.553 21.9295 157.412 21.7886C157.271 21.6477 157.201 21.4766 157.201 21.2753V7.02235C157.201 6.8009 157.271 6.62979 157.412 6.509C157.553 6.36808 157.724 6.29762 157.926 6.29762H160.432C160.653 6.29762 160.825 6.36808 160.945 6.509C161.086 6.62979 161.157 6.8009 161.157 7.02235V8.26042C162.385 6.75058 164.066 5.99565 166.2 5.99565C168.052 5.99565 169.521 6.59959 170.608 7.80747C171.695 9.01534 172.239 10.6762 172.239 12.79V21.2753C172.239 21.4766 172.169 21.6477 172.028 21.7886C171.907 21.9295 171.736 22 171.514 22H168.797C168.595 22 168.424 21.9295 168.283 21.7886C168.142 21.6477 168.072 21.4766 168.072 21.2753V12.9711C168.072 11.8035 167.78 10.8976 167.196 10.2534C166.632 9.58908 165.817 9.25692 164.75 9.25692C163.723 9.25692 162.898 9.58908 162.274 10.2534C161.65 10.9177 161.338 11.8237 161.338 12.9711V21.2753C161.338 21.4766 161.267 21.6477 161.127 21.7886C161.006 21.9295 160.835 22 160.613 22H157.926ZM182.394 22C180.562 22 179.183 21.5269 178.257 20.5807C177.331 19.6144 176.868 18.2053 176.868 16.3532V9.52869H174.483C174.282 9.52869 174.11 9.45823 173.969 9.31731C173.829 9.17639 173.758 9.00528 173.758 8.80396V7.02235C173.758 6.82104 173.829 6.64992 173.969 6.509C174.11 6.36808 174.282 6.29762 174.483 6.29762H176.868V1.28494C176.868 1.0635 176.939 0.892383 177.08 0.771596C177.221 0.630676 177.392 0.560217 177.593 0.560217H180.099C180.321 0.560217 180.492 0.630676 180.613 0.771596C180.754 0.892383 180.824 1.0635 180.824 1.28494V6.29762H184.599C184.8 6.29762 184.971 6.36808 185.112 6.509C185.253 6.64992 185.324 6.82104 185.324 7.02235V8.80396C185.324 9.00528 185.253 9.17639 185.112 9.31731C184.971 9.45823 184.8 9.52869 184.599 9.52869H180.824V16.021C180.824 16.8867 180.975 17.5409 181.277 17.9838C181.579 18.4267 182.072 18.6481 182.757 18.6481H184.871C185.092 18.6481 185.263 18.7186 185.384 18.8595C185.525 18.9803 185.595 19.1514 185.595 19.3729V21.2753C185.595 21.4766 185.525 21.6477 185.384 21.7886C185.263 21.9295 185.092 22 184.871 22H182.394ZM46.9223 58C46.721 58 46.5499 57.9295 46.409 57.7886C46.268 57.6477 46.1976 57.4766 46.1976 57.2753V37.6171C46.1976 37.3957 46.258 37.2145 46.3788 37.0736C46.5197 36.9326 46.7009 36.8622 46.9223 36.8622H55.6794C58.0348 36.8622 59.7962 37.3856 60.9639 38.4324C62.1315 39.4591 62.7153 40.8683 62.7153 42.66C62.7153 43.7068 62.4536 44.6027 61.9302 45.3475C61.4269 46.0722 60.833 46.5956 60.1485 46.9177C60.9941 47.3002 61.7087 47.9243 62.2925 48.79C62.8763 49.6556 63.1682 50.642 63.1682 51.7492C63.1682 53.6215 62.5341 55.1313 61.2658 56.2788C59.9976 57.4263 58.226 58 55.9512 58H46.9223ZM55.1359 45.5287C56.1626 45.5287 56.9477 45.277 57.4912 44.7738C58.0549 44.2705 58.3367 43.5961 58.3367 42.7506C58.3367 41.9051 58.065 41.2508 57.5214 40.7878C56.9779 40.3248 56.1827 40.0933 55.1359 40.0933H50.4553V45.5287H55.1359ZM55.4378 54.7689C56.4847 54.7689 57.3 54.4871 57.8838 53.9234C58.4676 53.3396 58.7595 52.6048 58.7595 51.719C58.7595 50.8333 58.4575 50.1085 57.8536 49.5449C57.2698 48.9611 56.4645 48.6692 55.4378 48.6692H50.4553V54.7689H55.4378ZM72.9125 58.302C70.537 58.302 68.705 57.698 67.4166 56.4902C66.1282 55.2823 65.4337 53.6114 65.333 51.4775L65.3029 50.1488L65.333 48.8201C65.4337 46.7064 66.1383 45.0455 67.4468 43.8377C68.7554 42.6097 70.5772 41.9957 72.9125 41.9957C75.2276 41.9957 77.0394 42.6097 78.3479 43.8377C79.6564 45.0455 80.361 46.7064 80.4617 48.8201C80.4818 49.0617 80.4919 49.5046 80.4919 50.1488C80.4919 50.793 80.4818 51.2359 80.4617 51.4775C80.361 53.6114 79.6665 55.2823 78.3781 56.4902C77.0897 57.698 75.2678 58.302 72.9125 58.302ZM72.9125 55.2521C73.9794 55.2521 74.7947 54.9199 75.3584 54.2556C75.9422 53.5913 76.2543 52.6149 76.2945 51.3265C76.3146 51.1252 76.3247 50.7326 76.3247 50.1488C76.3247 49.565 76.3146 49.1724 76.2945 48.9711C76.2543 47.6827 75.9422 46.7064 75.3584 46.042C74.7746 45.3576 73.9593 45.0153 72.9125 45.0153C71.8455 45.0153 71.0201 45.3576 70.4363 46.042C69.8525 46.7064 69.5405 47.6827 69.5002 48.9711L69.47 50.1488L69.5002 51.3265C69.5405 52.6149 69.8525 53.5913 70.4363 54.2556C71.0201 54.9199 71.8455 55.2521 72.9125 55.2521ZM90.1833 58.302C87.8078 58.302 85.9758 57.698 84.6874 56.4902C83.399 55.2823 82.7045 53.6114 82.6039 51.4775L82.5737 50.1488L82.6039 48.8201C82.7045 46.7064 83.4091 45.0455 84.7176 43.8377C86.0262 42.6097 87.848 41.9957 90.1833 41.9957C92.4984 41.9957 94.3102 42.6097 95.6187 43.8377C96.9272 45.0455 97.6318 46.7064 97.7325 48.8201C97.7526 49.0617 97.7627 49.5046 97.7627 50.1488C97.7627 50.793 97.7526 51.2359 97.7325 51.4775C97.6318 53.6114 96.9373 55.2823 95.6489 56.4902C94.3605 57.698 92.5386 58.302 90.1833 58.302ZM90.1833 55.2521C91.2502 55.2521 92.0655 54.9199 92.6292 54.2556C93.213 53.5913 93.5251 52.6149 93.5653 51.3265C93.5855 51.1252 93.5955 50.7326 93.5955 50.1488C93.5955 49.565 93.5855 49.1724 93.5653 48.9711C93.5251 47.6827 93.213 46.7064 92.6292 46.042C92.0454 45.3576 91.2301 45.0153 90.1833 45.0153C89.1163 45.0153 88.2909 45.3576 87.7071 46.042C87.1233 46.7064 86.8113 47.6827 86.771 48.9711L86.7408 50.1488L86.771 51.3265C86.8113 52.6149 87.1233 53.5913 87.7071 54.2556C88.2909 54.9199 89.1163 55.2521 90.1833 55.2521ZM101.234 58C101.032 58 100.861 57.9295 100.72 57.7886C100.579 57.6477 100.509 57.4766 100.509 57.2753V37.2849C100.509 37.0635 100.579 36.8924 100.72 36.7716C100.861 36.6307 101.032 36.5602 101.234 36.5602H103.74C103.941 36.5602 104.112 36.6307 104.253 36.7716C104.394 36.9125 104.465 37.0836 104.465 37.2849V47.6123L109.477 42.811C109.538 42.7707 109.628 42.7002 109.749 42.5996C109.89 42.4788 110.021 42.3983 110.142 42.358C110.262 42.3178 110.413 42.2976 110.595 42.2976H113.463C113.665 42.2976 113.826 42.358 113.946 42.4788C114.067 42.5996 114.128 42.7606 114.128 42.962C114.128 43.1431 114.027 43.3243 113.826 43.5055L107.665 49.3335L114.581 56.8223C114.762 57.0035 114.852 57.1746 114.852 57.3357C114.852 57.537 114.792 57.698 114.671 57.8188C114.55 57.9396 114.399 58 114.218 58H111.289C111.007 58 110.796 57.9698 110.655 57.9094C110.534 57.8289 110.373 57.688 110.172 57.4867L104.465 51.4171V57.2753C104.465 57.4766 104.394 57.6477 104.253 57.7886C104.112 57.9295 103.941 58 103.74 58H101.234ZM122.568 58.302C120.313 58.302 118.522 57.6578 117.193 56.3694C115.884 55.081 115.19 53.249 115.109 50.8735L115.079 50.1186C115.079 47.6022 115.733 45.6193 117.042 44.1698C118.371 42.7204 120.203 41.9957 122.538 41.9957C124.933 41.9957 126.775 42.7204 128.064 44.1698C129.372 45.6193 130.027 47.5519 130.027 49.9676V50.6018C130.027 50.8031 129.956 50.9742 129.815 51.1151C129.674 51.256 129.493 51.3265 129.272 51.3265H119.246V51.5681C119.287 52.6954 119.588 53.6315 120.152 54.3764C120.736 55.1011 121.531 55.4635 122.538 55.4635C123.685 55.4635 124.621 55.0004 125.346 54.0744C125.527 53.853 125.668 53.7221 125.769 53.6818C125.869 53.6215 126.041 53.5913 126.282 53.5913H128.939C129.121 53.5913 129.272 53.6416 129.392 53.7422C129.533 53.8429 129.604 53.9838 129.604 54.165C129.604 54.6481 129.312 55.2219 128.728 55.8862C128.164 56.5304 127.349 57.0941 126.282 57.5772C125.215 58.0604 123.977 58.302 122.568 58.302ZM125.859 48.7598V48.6994C125.859 47.5116 125.557 46.5654 124.953 45.8609C124.37 45.1361 123.564 44.7738 122.538 44.7738C121.511 44.7738 120.706 45.1361 120.122 45.8609C119.538 46.5654 119.246 47.5116 119.246 48.6994V48.7598H125.859ZM138.43 58.302C136.397 58.302 134.837 57.6578 133.75 56.3694C132.662 55.0608 132.069 53.3195 131.968 51.1453L131.938 50.1488L131.968 49.1523C132.048 47.0184 132.632 45.2972 133.719 43.9886C134.827 42.66 136.397 41.9957 138.43 41.9957C140.363 41.9957 141.903 42.66 143.05 43.9886V37.2849C143.05 37.0635 143.121 36.8924 143.262 36.7716C143.403 36.6307 143.574 36.5602 143.775 36.5602H146.402C146.624 36.5602 146.795 36.6307 146.915 36.7716C147.056 36.8924 147.127 37.0635 147.127 37.2849V57.2753C147.127 57.4766 147.056 57.6477 146.915 57.7886C146.795 57.9295 146.624 58 146.402 58H143.956C143.755 58 143.584 57.9295 143.443 57.7886C143.302 57.6477 143.231 57.4766 143.231 57.2753V56.158C142.124 57.5873 140.524 58.302 138.43 58.302ZM139.578 55.0407C140.725 55.0407 141.571 54.6783 142.114 53.9536C142.678 53.2088 142.99 52.2928 143.05 51.2057C143.07 50.9641 143.08 50.5816 143.08 50.0582C143.08 49.5147 143.07 49.1221 143.05 48.8805C143.01 47.874 142.698 47.0184 142.114 46.3138C141.53 45.6092 140.685 45.2569 139.578 45.2569C137.424 45.2569 136.276 46.5856 136.135 49.2429L136.105 50.1488L136.135 51.0547C136.276 53.712 137.424 55.0407 139.578 55.0407Z" fill="#3F8BCA"/>
</svg>
