<svg width="22" height="22" viewBox="0 0 22 22" fill="none" xmlns="http://www.w3.org/2000/svg">
<path d="M12.1151 18.3859L12.1151 18.3859L12.1136 18.387C11.7201 18.6957 11.2297 18.8327 10.7424 18.7747C10.2554 18.7167 9.81315 18.4689 9.51324 18.0878C9.26153 17.768 8.80052 17.7149 8.48406 17.9702C8.16833 18.2248 8.11666 18.6895 8.3678 19.0085C8.90896 19.6961 9.70188 20.1401 10.571 20.2436C11.4391 20.347 12.3132 20.1025 13.001 19.5632C13.2056 19.4088 13.3982 19.2209 13.5648 19.0113C13.8175 18.6934 13.768 18.2285 13.4535 17.9724C13.1382 17.7156 12.6769 17.7665 12.4237 18.0851C12.3342 18.1977 12.2305 18.2988 12.1151 18.3859ZM4.62248 8.24786L4.62246 8.24786L4.62246 8.24947L4.62023 8.73676C4.48893 9.31263 4.20995 9.84615 3.80928 10.2854L3.80905 10.2852L3.80421 10.2914L3.74264 10.3706L3.74239 10.3704L3.73806 10.377C3.36036 10.9508 3.14333 11.6149 3.10973 12.3008L3.10963 12.3008L3.10961 12.3053L3.10884 12.5228C3.08977 13.4251 3.39899 14.3173 3.9801 15.0257L3.9799 15.0259L3.98481 15.0311C4.76897 15.859 5.78514 16.3539 6.87636 16.459C9.61204 16.7561 12.3798 16.7561 15.1231 16.4582C16.2068 16.3583 17.2262 15.8621 17.9785 15.0637L17.9786 15.0639L17.9824 15.0593C18.552 14.3779 18.8637 13.5589 18.8904 12.7102L18.8904 12.7102L18.8904 12.7073L18.8913 12.3376L18.8914 12.3376L18.8912 12.333C18.8601 11.6177 18.6417 10.9524 18.259 10.3805L18.2592 10.3804L18.2548 10.3747L18.1982 10.302L18.1983 10.302L18.1955 10.2987L18.0584 10.1374C17.7573 9.76103 17.5374 9.32772 17.4121 8.86434L17.3737 8.70339L17.3658 8.53443C17.3658 8.53416 17.3658 8.53388 17.3657 8.53361C17.3641 8.4809 17.363 8.42418 17.3623 8.35948C17.3623 8.35931 17.3623 8.35914 17.3623 8.35897L17.3615 7.63777L17.3615 7.63699C17.3594 7.39909 17.3523 7.2286 17.3357 7.03648L17.3356 7.03557C17.0458 4.00354 14.1621 1.7335 11.0328 1.7335H10.9674C7.8365 1.7335 4.95333 4.00507 4.67304 7.03182L4.67299 7.03244C4.6545 7.24663 4.64192 7.46524 4.6338 7.7003L4.63379 7.7003L4.63377 7.70168L4.62248 8.24786ZM17.0676 11.2416C17.0681 11.2421 17.0686 11.2427 17.0691 11.2432C17.2863 11.5807 17.4102 11.9686 17.4285 12.3682L17.4278 12.5154L17.4277 12.5154L17.4278 12.5184C17.4418 13.0947 17.2512 13.6415 16.8909 14.0748C16.4097 14.5827 15.7207 14.9181 14.9792 14.9864L14.9792 14.9864L14.9776 14.9865C12.3277 15.2742 9.66429 15.2742 7.02451 14.9875L7.0233 14.9874C6.27386 14.9153 5.58419 14.5801 5.07402 14.0444C4.74921 13.6443 4.56038 13.0993 4.57227 12.5399L4.57227 12.5379L4.57241 12.3419L4.58783 12.1739C4.62481 11.8956 4.71794 11.6128 4.86247 11.3519L4.93351 11.2344C5.50434 10.5899 5.89622 9.80721 6.06917 8.96387L6.06968 8.96397L6.0707 8.95387L6.08389 8.82388L6.08433 8.82393L6.0844 8.8145L6.09037 7.97319L6.10502 7.54778C6.11163 7.41439 6.12008 7.28781 6.13065 7.16526C6.33448 4.96654 8.53494 3.21257 10.9674 3.21257H11.0328C13.4643 3.21257 15.6672 4.9663 15.8783 7.17135C15.8908 7.31652 15.8964 7.45559 15.8981 7.6645C15.8981 7.66459 15.8981 7.66468 15.8981 7.66476L15.9006 8.49351H15.9006L15.9006 8.49529C15.9034 8.62959 15.9087 8.74158 15.9177 8.86739L15.9175 8.8674L15.9184 8.87398L15.9302 8.95893L15.9298 8.95899L15.9319 8.96806L15.9914 9.22087L15.9914 9.22087L15.992 9.22345C16.1719 9.90591 16.495 10.5425 16.9396 11.0914L16.9396 11.0914L16.9412 11.0933L17.0676 11.2416Z" fill="#0F0F0F" stroke="#0F0F0F" stroke-width="0.2" stroke-linejoin="round"/>
</svg>
