<svg width="33" height="32" viewBox="0 0 33 32" fill="none" xmlns="http://www.w3.org/2000/svg">
<path d="M22.8362 4.74601V2.66602C22.8362 2.11935 22.3829 1.66602 21.8362 1.66602C21.2896 1.66602 20.8362 2.11935 20.8362 2.66602V4.66602H12.1696V2.66602C12.1696 2.11935 11.7162 1.66602 11.1696 1.66602C10.6229 1.66602 10.1696 2.11935 10.1696 2.66602V4.74601C6.56958 5.07935 4.82291 7.22601 4.55624 10.4127C4.52958 10.7993 4.84958 11.1193 5.22291 11.1193H27.7829C28.1696 11.1193 28.4896 10.786 28.4496 10.4127C28.1829 7.22601 26.4362 5.07935 22.8362 4.74601Z" fill="#3F8BCA"/>
<path opacity="0.4" d="M27.1667 13.1211C27.9 13.1211 28.5 13.7211 28.5 14.4544V22.6678C28.5 26.6678 26.5 29.3344 21.8333 29.3344H11.1667C6.5 29.3344 4.5 26.6678 4.5 22.6678V14.4544C4.5 13.7211 5.1 13.1211 5.83333 13.1211H27.1667Z" fill="#3F8BCA"/>
<path d="M11.8333 20.0011C11.4867 20.0011 11.14 19.8545 10.8867 19.6145C10.6467 19.3611 10.5 19.0145 10.5 18.6678C10.5 18.3211 10.6467 17.9745 10.8867 17.7211C11.26 17.3478 11.8467 17.2278 12.34 17.4411C12.5133 17.5078 12.66 17.6011 12.78 17.7211C13.02 17.9745 13.1667 18.3211 13.1667 18.6678C13.1667 19.0145 13.02 19.3611 12.78 19.6145C12.5267 19.8545 12.18 20.0011 11.8333 20.0011Z" fill="#3F8BCA"/>
<path d="M16.4974 20.0011C16.1507 20.0011 15.8041 19.8545 15.5507 19.6145C15.3107 19.3611 15.1641 19.0145 15.1641 18.6678C15.1641 18.3211 15.3107 17.9745 15.5507 17.7211C15.6707 17.6011 15.8174 17.5078 15.9907 17.4411C16.4841 17.2278 17.0707 17.3478 17.4441 17.7211C17.6841 17.9745 17.8307 18.3211 17.8307 18.6678C17.8307 19.0145 17.6841 19.3611 17.4441 19.6145C17.3774 19.6678 17.3107 19.7211 17.2441 19.7744C17.1641 19.8278 17.0841 19.8678 17.0041 19.8945C16.9241 19.9345 16.8441 19.9611 16.7641 19.9745C16.6707 19.9878 16.5907 20.0011 16.4974 20.0011Z" fill="#3F8BCA"/>
<path d="M21.1693 20.0007C20.8226 20.0007 20.4759 19.854 20.2226 19.614C19.9826 19.3607 19.8359 19.014 19.8359 18.6673C19.8359 18.3207 19.9826 17.974 20.2226 17.7207C20.3559 17.6007 20.4893 17.5073 20.6626 17.4406C20.9026 17.334 21.1693 17.3073 21.4359 17.3607C21.5159 17.374 21.5959 17.4006 21.6759 17.4406C21.7559 17.4673 21.8359 17.5074 21.9159 17.5607C21.9826 17.614 22.0493 17.6673 22.1159 17.7207C22.3559 17.974 22.5026 18.3207 22.5026 18.6673C22.5026 19.014 22.3559 19.3607 22.1159 19.614C22.0493 19.6673 21.9826 19.7206 21.9159 19.774C21.8359 19.8273 21.7559 19.8674 21.6759 19.894C21.5959 19.934 21.5159 19.9607 21.4359 19.974C21.3426 19.9873 21.2493 20.0007 21.1693 20.0007Z" fill="#3F8BCA"/>
<path d="M11.8333 24.6667C11.66 24.6667 11.4867 24.6267 11.3267 24.56C11.1533 24.4934 11.02 24.4 10.8867 24.28C10.6467 24.0267 10.5 23.68 10.5 23.3333C10.5 22.9867 10.6467 22.64 10.8867 22.3867C11.02 22.2667 11.1533 22.1733 11.3267 22.1067C11.5667 22 11.8333 21.9733 12.1 22.0267C12.18 22.04 12.26 22.0667 12.34 22.1067C12.42 22.1333 12.5 22.1734 12.58 22.2267C12.6467 22.28 12.7133 22.3334 12.78 22.3867C13.02 22.64 13.1667 22.9867 13.1667 23.3333C13.1667 23.68 13.02 24.0267 12.78 24.28C12.7133 24.3333 12.6467 24.4 12.58 24.44C12.5 24.4933 12.42 24.5334 12.34 24.56C12.26 24.6 12.18 24.6267 12.1 24.64C12.0067 24.6534 11.9267 24.6667 11.8333 24.6667Z" fill="#3F8BCA"/>
<path d="M16.4974 24.6656C16.1507 24.6656 15.8041 24.5189 15.5507 24.2789C15.3107 24.0256 15.1641 23.6789 15.1641 23.3323C15.1641 22.9856 15.3107 22.639 15.5507 22.3856C16.0441 21.8923 16.9507 21.8923 17.4441 22.3856C17.6841 22.639 17.8307 22.9856 17.8307 23.3323C17.8307 23.6789 17.6841 24.0256 17.4441 24.2789C17.1907 24.5189 16.8441 24.6656 16.4974 24.6656Z" fill="#3F8BCA"/>
<path d="M21.1693 24.6656C20.8226 24.6656 20.4759 24.5189 20.2226 24.2789C19.9826 24.0256 19.8359 23.6789 19.8359 23.3323C19.8359 22.9856 19.9826 22.639 20.2226 22.3856C20.7159 21.8923 21.6226 21.8923 22.1159 22.3856C22.3559 22.639 22.5026 22.9856 22.5026 23.3323C22.5026 23.6789 22.3559 24.0256 22.1159 24.2789C21.8626 24.5189 21.5159 24.6656 21.1693 24.6656Z" fill="#3F8BCA"/>
</svg>
