<svg width="16" height="16" viewBox="0 0 16 16" fill="none" xmlns="http://www.w3.org/2000/svg">
<path d="M11.1642 2.37398V1.33398C11.1642 1.06065 10.9375 0.833984 10.6642 0.833984C10.3909 0.833984 10.1642 1.06065 10.1642 1.33398V2.33398H5.83088V1.33398C5.83088 1.06065 5.60421 0.833984 5.33088 0.833984C5.05755 0.833984 4.83088 1.06065 4.83088 1.33398V2.37398C3.03088 2.54065 2.15755 3.61398 2.02422 5.20732C2.01088 5.40065 2.17088 5.56065 2.35755 5.56065H13.6375C13.8309 5.56065 13.9909 5.39398 13.9709 5.20732C13.8375 3.61398 12.9642 2.54065 11.1642 2.37398Z" fill="#3F8BCA"/>
<path opacity="0.4" d="M13.3333 6.56055C13.7 6.56055 14 6.86055 14 7.22721V11.3339C14 13.3339 13 14.6672 10.6667 14.6672H5.33333C3 14.6672 2 13.3339 2 11.3339V7.22721C2 6.86055 2.3 6.56055 2.66667 6.56055H13.3333Z" fill="#3F8BCA"/>
<path d="M5.66667 10.0006C5.49333 10.0006 5.32 9.92723 5.19333 9.80723C5.07333 9.68056 5 9.50723 5 9.3339C5 9.16057 5.07333 8.98724 5.19333 8.86057C5.38 8.67391 5.67333 8.61389 5.92 8.72056C6.00667 8.75389 6.08 8.80057 6.14 8.86057C6.26 8.98724 6.33333 9.16057 6.33333 9.3339C6.33333 9.50723 6.26 9.68056 6.14 9.80723C6.01333 9.92723 5.84 10.0006 5.66667 10.0006Z" fill="#3F8BCA"/>
<path d="M8.0026 10.0006C7.82927 10.0006 7.65594 9.92723 7.52927 9.80723C7.40927 9.68056 7.33594 9.50723 7.33594 9.3339C7.33594 9.16057 7.40927 8.98724 7.52927 8.86057C7.58927 8.80057 7.6626 8.75389 7.74927 8.72056C7.99594 8.61389 8.28927 8.67391 8.47594 8.86057C8.59594 8.98724 8.66927 9.16057 8.66927 9.3339C8.66927 9.50723 8.59594 9.68056 8.47594 9.80723C8.4426 9.83389 8.40927 9.86056 8.37594 9.88722C8.33594 9.91389 8.29594 9.93391 8.25594 9.94724C8.21594 9.96724 8.17594 9.98057 8.13594 9.98724C8.08927 9.99391 8.04927 10.0006 8.0026 10.0006Z" fill="#3F8BCA"/>
<path d="M10.3307 9.99936C10.1574 9.99936 9.98406 9.92602 9.8574 9.80602C9.7374 9.67935 9.66406 9.50602 9.66406 9.33269C9.66406 9.15936 9.7374 8.98603 9.8574 8.85936C9.92406 8.79936 9.99073 8.75268 10.0774 8.71935C10.1974 8.66601 10.3307 8.65268 10.4641 8.67935C10.5041 8.68602 10.5441 8.69935 10.5841 8.71935C10.6241 8.73268 10.6641 8.7527 10.7041 8.77937C10.7374 8.80603 10.7707 8.8327 10.8041 8.85936C10.9241 8.98603 10.9974 9.15936 10.9974 9.33269C10.9974 9.50602 10.9241 9.67935 10.8041 9.80602C10.7707 9.83268 10.7374 9.85935 10.7041 9.88601C10.6641 9.91268 10.6241 9.9327 10.5841 9.94603C10.5441 9.96603 10.5041 9.97936 10.4641 9.98603C10.4174 9.9927 10.3707 9.99936 10.3307 9.99936Z" fill="#3F8BCA"/>
<path d="M5.66667 12.3333C5.58 12.3333 5.49333 12.3134 5.41333 12.28C5.32667 12.2467 5.26 12.2 5.19333 12.14C5.07333 12.0133 5 11.84 5 11.6667C5 11.4933 5.07333 11.32 5.19333 11.1933C5.26 11.1333 5.32667 11.0867 5.41333 11.0533C5.53333 11 5.66667 10.9867 5.8 11.0133C5.84 11.02 5.88 11.0333 5.92 11.0533C5.96 11.0667 6 11.0867 6.04 11.1134C6.07333 11.14 6.10667 11.1667 6.14 11.1933C6.26 11.32 6.33333 11.4933 6.33333 11.6667C6.33333 11.84 6.26 12.0133 6.14 12.14C6.10667 12.1667 6.07333 12.2 6.04 12.22C6 12.2467 5.96 12.2667 5.92 12.28C5.88 12.3 5.84 12.3133 5.8 12.32C5.75333 12.3267 5.71333 12.3333 5.66667 12.3333Z" fill="#3F8BCA"/>
<path d="M8.0026 12.3328C7.82927 12.3328 7.65594 12.2595 7.52927 12.1395C7.40927 12.0128 7.33594 11.8395 7.33594 11.6661C7.33594 11.4928 7.40927 11.3195 7.52927 11.1928C7.77594 10.9461 8.22927 10.9461 8.47594 11.1928C8.59594 11.3195 8.66927 11.4928 8.66927 11.6661C8.66927 11.8395 8.59594 12.0128 8.47594 12.1395C8.34927 12.2595 8.17594 12.3328 8.0026 12.3328Z" fill="#3F8BCA"/>
<path d="M10.3307 12.3328C10.1574 12.3328 9.98406 12.2595 9.8574 12.1395C9.7374 12.0128 9.66406 11.8395 9.66406 11.6661C9.66406 11.4928 9.7374 11.3195 9.8574 11.1928C10.1041 10.9461 10.5574 10.9461 10.8041 11.1928C10.9241 11.3195 10.9974 11.4928 10.9974 11.6661C10.9974 11.8395 10.9241 12.0128 10.8041 12.1395C10.6774 12.2595 10.5041 12.3328 10.3307 12.3328Z" fill="#3F8BCA"/>
</svg>
