<svg width="24" height="25" viewBox="0 0 24 25" fill="none" xmlns="http://www.w3.org/2000/svg">
<path d="M17.62 11.25C17.19 11.25 16.85 10.9 16.85 10.48C16.85 10.11 16.48 9.33998 15.86 8.66998C15.25 8.01998 14.58 7.63998 14.02 7.63998C13.59 7.63998 13.25 7.28998 13.25 6.86998C13.25 6.44998 13.6 6.09998 14.02 6.09998C15.02 6.09998 16.07 6.63998 16.99 7.60998C17.85 8.51998 18.4 9.64998 18.4 10.47C18.4 10.9 18.05 11.25 17.62 11.25Z" fill="#3F8BCA"/>
<path d="M21.2298 11.25C20.7998 11.25 20.4598 10.9 20.4598 10.48C20.4598 6.93 17.5698 4.05 14.0298 4.05C13.5998 4.05 13.2598 3.7 13.2598 3.28C13.2598 2.86 13.5998 2.5 14.0198 2.5C18.4198 2.5 21.9998 6.08 21.9998 10.48C21.9998 10.9 21.6498 11.25 21.2298 11.25Z" fill="#3F8BCA"/>
<path opacity="0.4" d="M11.79 14.71L8.52 17.98C8.16 17.66 7.81 17.33 7.47 16.99C6.44 15.95 5.51 14.86 4.68 13.72C3.86 12.58 3.2 11.44 2.72 10.31C2.24 9.17 2 8.08 2 7.04C2 6.36 2.12 5.71 2.36 5.11C2.6 4.5 2.98 3.94 3.51 3.44C4.15 2.81 4.85 2.5 5.59 2.5C5.87 2.5 6.15 2.56 6.4 2.68C6.66 2.8 6.89 2.98 7.07 3.24L9.39 6.51C9.57 6.76 9.7 6.99 9.79 7.21C9.88 7.42 9.93 7.63 9.93 7.82C9.93 8.06 9.86 8.3 9.72 8.53C9.59 8.76 9.4 9 9.16 9.24L8.4 10.03C8.29 10.14 8.24 10.27 8.24 10.43C8.24 10.51 8.25 10.58 8.27 10.66C8.3 10.74 8.33 10.8 8.35 10.86C8.53 11.19 8.84 11.62 9.28 12.14C9.73 12.66 10.21 13.19 10.73 13.72C11.09 14.07 11.44 14.41 11.79 14.71Z" fill="#3F8BCA"/>
<path d="M21.9696 18.83C21.9696 19.11 21.9196 19.4 21.8196 19.68C21.7896 19.76 21.7596 19.84 21.7196 19.92C21.5496 20.28 21.3296 20.62 21.0396 20.94C20.5496 21.48 20.0096 21.87 19.3996 22.12C19.3896 22.12 19.3796 22.13 19.3696 22.13C18.7796 22.37 18.1396 22.5 17.4496 22.5C16.4296 22.5 15.3396 22.26 14.1896 21.77C13.0396 21.28 11.8896 20.62 10.7496 19.79C10.3596 19.5 9.96961 19.21 9.59961 18.9L12.8696 15.63C13.1496 15.84 13.3996 16 13.6096 16.11C13.6596 16.13 13.7196 16.16 13.7896 16.19C13.8696 16.22 13.9496 16.23 14.0396 16.23C14.2096 16.23 14.3396 16.17 14.4496 16.06L15.2096 15.31C15.4596 15.06 15.6996 14.87 15.9296 14.75C16.1596 14.61 16.3896 14.54 16.6396 14.54C16.8296 14.54 17.0296 14.58 17.2496 14.67C17.4696 14.76 17.6996 14.89 17.9496 15.06L21.2596 17.41C21.5196 17.59 21.6996 17.8 21.8096 18.05C21.9096 18.3 21.9696 18.55 21.9696 18.83Z" fill="#3F8BCA"/>
</svg>
