<svg width="32" height="32" viewBox="0 0 32 32" fill="none" xmlns="http://www.w3.org/2000/svg">
<path d="M15.4543 27.6561L15.4541 27.6561L15.4549 27.6627C15.5208 28.1589 15.9374 28.5444 16.4452 28.5444C16.9993 28.5444 17.4446 28.0858 17.4446 27.5247L17.4446 25.0461C22.4327 24.5335 26.3225 20.2293 26.3225 14.9979C26.3225 14.4368 25.8772 13.9781 25.3232 13.9781C24.7691 13.9781 24.3238 14.4368 24.3238 14.9979C24.3238 19.4519 20.7948 23.0577 16.4448 23.0577C12.0948 23.0577 8.56574 19.4519 8.56574 14.9979C8.56574 14.4368 8.12041 13.9781 7.56637 13.9781C7.01233 13.9781 6.56699 14.4368 6.56699 14.9979C6.56699 20.2297 10.4574 24.5342 15.4461 25.0462L15.4459 27.5247H15.4456L15.4461 27.5313L15.4543 27.6561ZM21.9846 9.40813C21.9846 6.3687 19.5738 3.9 16.5963 3.9H16.2937C13.3162 3.9 10.9053 6.3687 10.9053 9.40813V14.9885C10.9053 18.0288 13.3158 20.4967 16.2937 20.4967H16.5963C19.5742 20.4967 21.9846 18.0288 21.9846 14.9885V9.40813ZM16.2937 5.9395H16.5963C18.4657 5.9395 19.9859 7.49084 19.9859 9.40813V14.9885C19.9859 16.9065 18.4662 18.4572 16.5963 18.4572H16.2937C14.4238 18.4572 12.9041 16.9065 12.9041 14.9885V9.40813C12.9041 7.49084 14.4243 5.9395 16.2937 5.9395Z" fill="#AAAAAA" stroke="#AAAAAA" stroke-width="0.2"/>
</svg>
