<svg width="24" height="24" viewBox="0 0 24 24" fill="none" xmlns="http://www.w3.org/2000/svg">
<path d="M17.5501 14.1413C16.9456 14.0112 16.4674 14.2919 16.0439 14.537C15.6102 14.7896 14.7856 15.4586 14.313 15.2874C11.893 14.291 9.61692 12.1728 8.63165 9.74314C8.458 9.26038 9.12382 8.43052 9.37455 7.99174C9.61785 7.56698 9.89272 7.08423 9.76735 6.47517C9.65406 5.92785 8.1887 4.06325 7.67052 3.55336C7.32879 3.21655 6.9787 3.03131 6.61932 3.00137C5.26818 2.94336 3.75916 4.74622 3.49451 5.17752C2.83147 6.09719 2.83518 7.32093 3.50565 8.80475C5.12145 12.7903 11.2327 18.8051 15.2332 20.4817C15.9715 20.8269 16.6466 21 17.253 21C17.8464 21 18.3748 20.8344 18.8289 20.506C19.1715 20.3086 21.0483 18.7247 20.999 17.3372C20.9693 16.9836 20.7845 16.6299 20.4521 16.2875C19.946 15.7645 18.0934 14.2554 17.5501 14.1413Z" fill="#EE8322"/>
</svg>
