<svg width="24" height="25" viewBox="0 0 24 25" fill="none" xmlns="http://www.w3.org/2000/svg">
<path d="M17.0592 1.66002L17.0596 1.65999L17.0582 1.64999C16.9975 1.19907 16.6138 0.85 16.1474 0.85C15.6386 0.85 15.2282 1.26529 15.2281 1.77513C15.2281 1.77515 15.2281 1.77517 15.2281 1.77519L15.2278 2.48222H8.78114L8.78126 1.77522L8.7816 1.77522L8.78093 1.7652L8.77391 1.66001L8.77425 1.65999L8.7729 1.64999C8.7122 1.19907 8.32846 0.85 7.86204 0.85C7.35328 0.85 6.94282 1.26531 6.94281 1.77518C6.94281 1.77518 6.94281 1.77519 6.94281 1.77519L6.94273 2.51271C5.39972 2.64651 4.13759 3.21852 3.25423 4.17272C2.34443 5.15549 1.85 6.52898 1.85 8.20643V17.5601C1.85 19.3596 2.4042 20.8166 3.41807 21.8239C4.43177 22.831 5.88861 23.3722 7.66251 23.3722H16.3374C18.1126 23.3722 19.5693 22.8403 20.5827 21.8477C21.5965 20.8547 22.15 19.417 22.15 17.6383V8.20689C22.1551 6.52887 21.6648 5.15505 20.7569 4.17215C19.8752 3.21778 18.6128 2.64606 17.0666 2.51257L17.0666 1.77518H17.0669L17.0662 1.7652L17.0592 1.66002ZM16.5654 16.5567V16.5564L16.5561 16.557L16.4422 16.5641L16.4422 16.5636L16.4312 16.5651C15.9816 16.6266 15.6367 17.0143 15.6367 17.4819C15.6367 17.993 16.0484 18.4071 16.5654 18.4071V18.4074L16.5756 18.4067L16.6799 18.3997L16.68 18.4L16.6901 18.3986C17.1397 18.3371 17.4846 17.9495 17.4846 17.4819C17.4846 16.972 17.0742 16.5567 16.5654 16.5567ZM12.0142 16.5567V16.5564L12.0049 16.557L11.891 16.5641L11.891 16.5636L11.88 16.5651C11.4304 16.6266 11.0855 17.0143 11.0855 17.4819C11.0855 17.993 11.4971 18.4071 12.0142 18.4071V18.4074L12.0243 18.4067L12.1287 18.3997L12.1287 18.4L12.1389 18.3986C12.5885 18.3371 12.9334 17.9495 12.9334 17.4819C12.9334 16.972 12.523 16.5567 12.0142 16.5567ZM7.45347 16.5567V16.5564L7.44417 16.557L7.33029 16.5641L7.33026 16.5636L7.31927 16.5651C6.86965 16.6266 6.52474 17.0143 6.52474 17.4819C6.52474 17.9918 6.9352 18.4071 7.44397 18.4071V18.4074L7.45328 18.4068L7.56716 18.3997L7.56718 18.4001L7.57817 18.3986C8.0278 18.3371 8.3727 17.9495 8.3727 17.4819C8.3727 16.972 7.96224 16.5567 7.45347 16.5567ZM16.5654 12.5396V12.5393L16.5561 12.5399L16.4422 12.547L16.4422 12.5466L16.4312 12.5481C15.9816 12.6095 15.6367 12.9972 15.6367 13.4648C15.6367 13.9759 16.0484 14.39 16.5654 14.39V14.3903L16.5756 14.3897L16.6799 14.3826L16.68 14.3829L16.6901 14.3815C17.1397 14.3201 17.4846 13.9324 17.4846 13.4648C17.4846 12.9549 17.0742 12.5396 16.5654 12.5396ZM12.0142 12.5396V12.5393L12.0049 12.5399L11.891 12.547L11.891 12.5466L11.88 12.5481C11.4304 12.6095 11.0855 12.9972 11.0855 13.4648C11.0855 13.9759 11.4971 14.39 12.0142 14.39V14.3903L12.0243 14.3897L12.1287 14.3826L12.1287 14.3829L12.1389 14.3815C12.5885 14.3201 12.9334 13.9324 12.9334 13.4648C12.9334 12.9549 12.523 12.5396 12.0142 12.5396ZM7.45347 12.5396V12.5393L7.44417 12.5399L7.33029 12.547L7.33026 12.5466L7.31927 12.5481C6.86965 12.6095 6.52474 12.9972 6.52474 13.4648C6.52474 13.9747 6.9352 14.39 7.44397 14.39V14.3903L7.45327 14.3897L7.56715 14.3826L7.56718 14.383L7.57817 14.3815C8.0278 14.3201 8.3727 13.9324 8.3727 13.4648C8.3727 12.9549 7.96224 12.5396 7.45347 12.5396ZM3.68801 8.50222L3.68846 8.20666V8.20643C3.68846 7.02119 3.99664 6.10868 4.56709 5.47021C5.1091 4.86357 5.90312 4.48727 6.9419 4.37113L6.94281 5.17669L6.94249 5.17669L6.94314 5.18651L6.95016 5.2917L6.94983 5.29172L6.95117 5.30172C7.01187 5.75264 7.39561 6.10171 7.86204 6.10171C8.3708 6.10171 8.78126 5.68639 8.78126 5.17652V5.17649L8.78113 4.33222H15.2278L15.2281 5.17657H15.2278L15.2285 5.18651L15.2355 5.2917L15.2351 5.29172L15.2365 5.30172C15.2972 5.75264 15.6809 6.10171 16.1474 6.10171C16.6561 6.10171 17.0666 5.68639 17.0666 5.17652L17.0666 4.37078C18.108 4.48632 18.9016 4.86176 19.4417 5.46763C20.0102 6.10523 20.3151 7.01729 20.3115 8.2036V8.20392L20.3112 8.50222H3.68801ZM3.68779 10.3533H20.3111L20.3115 17.6383C20.3115 18.9215 19.9528 19.8861 19.291 20.5307C18.6285 21.1758 17.6403 21.5218 16.3374 21.5218H7.66389H7.66251L7.41537 21.5174C7.41491 21.5174 7.41445 21.5174 7.41398 21.5174C6.19779 21.4732 5.27216 21.1019 4.6498 20.4456C4.02686 19.7886 3.68846 18.8258 3.68846 17.5601L3.68779 10.3533Z" fill="#3F8BCA" stroke="#AAAAAA" stroke-width="0.3"/>
</svg>
