<svg width="16" height="16" viewBox="0 0 16 16" fill="none" xmlns="http://www.w3.org/2000/svg">
<path opacity="0.4" d="M8.0026 14.6673C11.6845 14.6673 14.6693 11.6825 14.6693 8.00065C14.6693 4.31875 11.6845 1.33398 8.0026 1.33398C4.32071 1.33398 1.33594 4.31875 1.33594 8.00065C1.33594 11.6825 4.32071 14.6673 8.0026 14.6673Z" fill="#3F8BCA"/>
<path d="M10.4711 10.6192C10.3845 10.6192 10.2978 10.5992 10.2178 10.5459L8.15115 9.31253C7.63781 9.00586 7.25781 8.33253 7.25781 7.73919V5.00586C7.25781 4.73253 7.48448 4.50586 7.75781 4.50586C8.03115 4.50586 8.25781 4.73253 8.25781 5.00586V7.73919C8.25781 7.97919 8.45781 8.33253 8.66448 8.45253L10.7311 9.68586C10.9711 9.82586 11.0445 10.1325 10.9045 10.3725C10.8045 10.5325 10.6378 10.6192 10.4711 10.6192Z" fill="#3F8BCA"/>
</svg>
