<svg width="32" height="32" viewBox="0 0 32 32" fill="none" xmlns="http://www.w3.org/2000/svg">
<path d="M23.4725 12.2906L23.4737 21.9917C23.4737 23.8815 21.9389 25.4396 20.0785 25.4396H10.7095C8.67823 25.4396 7.19233 23.9829 7.19233 21.9917V9.26707C7.19233 7.42604 8.80089 5.87305 10.7095 5.87305H10.7095L17.2234 5.87108L17.2237 8.29159H17.2237L17.2238 8.29436L17.2299 8.51534L17.2299 8.51534L17.2301 8.51813C17.3474 10.6186 19.0848 12.2869 21.2145 12.2914C21.7091 12.2925 22.154 12.2934 22.5451 12.2938L22.5456 12.2938L23.4725 12.2906ZM16.0902 13.8014L16.0905 13.8014L16.0896 13.7947C16.0247 13.3164 15.6149 12.9479 15.1188 12.9479C14.5778 12.9479 14.1392 13.3864 14.1392 13.9275C14.1392 13.9275 14.1392 13.9275 14.1392 13.9275L14.1387 15.8212H12.2449V15.821L12.2382 15.8214L12.1188 15.8294L12.1188 15.8292L12.1121 15.8301C11.6338 15.895 11.2653 16.3048 11.2653 16.8008C11.2653 17.3419 11.7039 17.7805 12.2449 17.7805H14.1387L14.1392 19.6758H14.139L14.1394 19.6825L14.1474 19.8019L14.1472 19.8019L14.1481 19.8086C14.213 20.2869 14.6228 20.6555 15.1188 20.6555C15.6599 20.6555 16.0985 20.2169 16.0985 19.6758V19.6758L16.0981 17.7805H17.9932V17.7807L17.9999 17.7803L18.1193 17.7723L18.1193 17.7725L18.126 17.7716C18.6043 17.7067 18.9729 17.2969 18.9729 16.8008C18.9729 16.2598 18.5343 15.8212 17.9932 15.8212H16.0981L16.0985 13.9275H16.0987L16.0983 13.9208L16.0902 13.8014ZM19.1828 7.00605L22.3761 10.3321L21.2188 10.3321C20.0936 10.3297 19.1831 9.41704 19.1831 8.29158V8.29156L19.1828 7.00605ZM18.3602 3.91249C18.3091 3.90427 18.2567 3.9 18.2034 3.9C18.1503 3.9 18.0982 3.90423 18.0473 3.91238L10.7095 3.91372C10.7095 3.91372 10.7095 3.91372 10.7095 3.91372C7.73961 3.91373 5.23301 6.32257 5.23301 9.26707V21.9917C5.23301 25.077 7.60795 27.399 10.7095 27.399H20.0785C23.0302 27.399 25.433 24.9546 25.433 21.9917V11.0815C25.433 10.8286 25.3352 10.5854 25.16 10.403L19.2182 4.21487C19.0335 4.02257 18.7785 3.91384 18.5119 3.91372L18.5123 3.91373L18.5115 4.01372V3.91372L18.3602 3.91249Z" fill="#AAAAAA" stroke="#AAAAAA" stroke-width="0.2"/>
</svg>
