<svg width="24" height="24" viewBox="0 0 24 24" fill="none" xmlns="http://www.w3.org/2000/svg">
<path d="M21.9222 20.6204L21.9221 20.6204L18.9733 17.7453C20.4975 16.0541 21.4231 13.8325 21.4231 11.3993C21.4231 6.09355 17.0261 1.8 11.6115 1.8C6.19701 1.8 1.8 6.09355 1.8 11.3993C1.8 16.705 6.19701 20.9985 11.6115 20.9985C13.8642 20.9985 15.9405 20.2555 17.5971 19.0059L20.5974 21.9318L20.6026 21.9369L20.6082 21.9416L20.6913 22.0116L20.697 22.0164L20.7029 22.0207C21.0704 22.2866 21.5905 22.257 21.9239 21.9301C22.2927 21.5685 22.2919 20.9811 21.9222 20.6204ZM3.68044 11.3993C3.68044 7.1224 7.22708 3.64774 11.6115 3.64774C15.996 3.64774 19.5426 7.1224 19.5426 11.3993C19.5426 15.6761 15.996 19.1508 11.6115 19.1508C7.22708 19.1508 3.68044 15.6761 3.68044 11.3993Z" fill="#959AA2" stroke="#959AA2" stroke-width="0.4"/>
</svg>
