<svg width="236" height="155" viewBox="0 0 236 155" fill="none" xmlns="http://www.w3.org/2000/svg">
<path fill-rule="evenodd" clip-rule="evenodd" d="M131.823 19.9204C134.392 19.9204 136.856 20.941 138.673 22.7575C140.489 24.5741 141.51 27.0379 141.51 29.6069C141.51 32.1759 140.489 34.6396 138.673 36.4562C136.856 38.2728 134.392 39.2933 131.823 39.2933H134.592C135.841 39.2901 137.08 39.5165 138.247 39.9612C139.871 41.9341 140.916 45.3295 140.684 49.2168C140.471 49.2916 140.291 49.4372 140.173 49.6293C140.055 49.8214 140.007 50.0482 140.037 50.2716C140.066 50.495 140.172 50.7014 140.336 50.8561C140.499 51.0109 140.712 51.1045 140.936 51.1213C141.161 51.1381 141.385 51.077 141.57 50.9483C141.755 50.8196 141.89 50.6312 141.952 50.4147C142.015 50.1981 142.001 49.9667 141.913 49.7592C141.825 49.5518 141.668 49.381 141.469 49.2754C141.701 45.7628 140.944 42.7167 139.756 40.6876C141.337 41.6009 142.651 42.9134 143.565 44.494C144.48 46.0745 144.963 47.8675 144.966 49.6935V55.7857C144.966 55.9897 144.936 56.1936 144.936 56.3975H144.966V57.4987C142.443 62.2878 138.674 66.307 134.056 69.1326C134.056 63.359 134.143 58.3399 134.143 52.421C134.136 49.787 133.343 47.215 131.865 45.035C130.386 42.8549 128.29 41.1662 125.846 40.1855C126.071 40.0169 126.284 39.832 126.483 39.6323C127.328 39.422 128.195 39.315 129.065 39.3137H131.823C130.375 39.313 128.946 38.9854 127.643 38.3552C129.611 35.9233 130.585 32.8365 130.37 29.7153C130.155 26.5942 128.766 23.6703 126.483 21.5314C128.065 20.4803 129.924 19.9247 131.823 19.9357V19.9204ZM91.3467 46.8462V56.3338C93.6767 61.2571 97.2961 65.4579 101.821 68.4903V65.1255L101.793 59.8719C101.767 59.6016 101.757 59.3301 101.762 59.0587V52.4159C101.764 49.7845 102.552 47.2136 104.025 45.0334C105.499 42.8532 107.59 41.1632 110.031 40.1804C109.83 40.0045 109.626 39.8312 109.422 39.6272C108.577 39.4204 107.71 39.3134 106.84 39.3086H101.329C100.921 39.3086 100.516 39.3366 100.138 39.3672C98.3668 40.8763 97.9615 43.3718 97.9335 43.9224C97.9921 43.9504 97.9615 43.9504 98.0201 43.981C99.0066 44.4169 99.6745 45.3142 99.9931 46.4179C100.308 47.5854 100.318 48.8144 100.021 49.9866C99.9345 50.3053 99.8198 50.6545 99.7025 51.0062C99.7305 51.0368 99.7305 51.0649 99.7305 51.1235C99.7508 51.1904 99.7561 51.261 99.7459 51.3302C99.7357 51.3994 99.7103 51.4655 99.6716 51.5237C99.6328 51.5819 99.5817 51.6309 99.5218 51.667C99.4619 51.7031 99.3948 51.7256 99.3252 51.7327C99.2508 51.7474 99.1742 51.7469 99.0999 51.7314C99.0257 51.7159 98.9553 51.6855 98.893 51.6423C98.8307 51.599 98.7778 51.5436 98.7373 51.4795C98.6968 51.4153 98.6696 51.3437 98.6574 51.2688C98.6327 51.1495 98.6515 51.0254 98.7104 50.9187C98.7693 50.8121 98.8644 50.7301 98.9786 50.6876C99.0652 50.369 99.1519 50.0784 99.2335 49.7598C99.4941 48.7214 99.4941 47.6347 99.2335 46.5964C98.9786 45.7271 98.4688 45.0312 97.7244 44.7101C97.6097 44.654 97.4925 44.6234 97.3752 44.5648C97.2623 44.5325 97.1459 44.5137 97.0285 44.5087C96.3021 44.4501 95.5475 44.8554 94.9103 45.5818C94.182 46.4363 93.6651 47.4501 93.4012 48.5413C93.3148 48.8938 93.2568 49.2527 93.2279 49.6145C93.2882 49.6876 93.3278 49.7757 93.3426 49.8694C93.3614 49.938 93.3657 50.0097 93.3551 50.0801C93.3445 50.1504 93.3193 50.2178 93.2811 50.2778C93.2429 50.3378 93.1926 50.3892 93.1334 50.4286C93.0742 50.468 93.0074 50.4946 92.9373 50.5066C92.7878 50.5294 92.6352 50.494 92.511 50.4077C92.3868 50.3214 92.3003 50.1908 92.2694 50.0427C92.2482 49.9498 92.2534 49.8527 92.2845 49.7626C92.3155 49.6725 92.3713 49.5929 92.4453 49.5329C92.4699 49.1208 92.5374 48.7125 92.6467 48.3144C92.9183 47.0933 93.4925 45.9599 94.3163 45.0185C95.0989 44.1467 96.0573 43.6242 97.0438 43.7108C97.3625 42.2324 98.0303 40.6367 98.9021 39.5915C97.1163 40.0278 95.4777 40.9287 94.1525 42.2028C92.8274 43.4769 91.8629 45.0789 91.3569 46.8462H91.3467ZM98.2521 30.2492C98.988 30.4544 99.7653 30.4603 100.504 30.2663C101.243 30.0723 101.917 29.6853 102.458 29.1451C102.998 28.6048 103.385 27.9307 103.579 27.1917C103.773 26.4527 103.767 25.6755 103.562 24.9395C103.291 26.246 102.644 27.4448 101.701 28.3883C100.757 29.3317 99.5586 29.9786 98.2521 30.2492ZM94.5101 31.0853C94.7114 34.1034 94.1608 37.9907 92.5932 39.9357C94.1607 39.079 95.8275 38.4181 97.5562 37.9678C96.4524 36.1095 95.8738 34.1952 96.8603 32.5408C96.6372 33.4918 96.6969 34.4873 97.032 35.4048C97.3671 36.3223 97.9631 37.1219 98.7466 37.7052L98.8613 37.7639C98.9182 37.8191 98.9885 37.8586 99.0652 37.8786C99.115 37.9284 99.1738 37.9682 99.2386 37.9958C99.3093 38.0461 99.3876 38.0848 99.4705 38.1105C99.5269 38.1671 99.5973 38.2075 99.6745 38.2278C99.7382 38.2731 99.8066 38.3115 99.8784 38.3425C99.9345 38.3731 100.021 38.4011 100.08 38.4317C100.162 38.4585 100.24 38.4971 100.312 38.5464C100.37 38.577 100.457 38.6051 100.516 38.6331C100.589 38.6669 100.667 38.6868 100.748 38.6917L100.952 38.7784H100.98C101.038 38.809 101.125 38.837 101.184 38.8651C101.242 38.8931 101.357 38.8956 101.415 38.9237L101.417 38.9248C101.649 38.9834 101.649 38.9834 101.881 39.0421L101.879 39.0409C101.958 39.0559 102.035 39.0755 102.111 39.0996C102.198 39.1276 102.285 39.1276 102.366 39.1557C102.445 39.1524 102.523 39.1628 102.598 39.1862C102.685 39.1862 102.744 39.2143 102.83 39.2143C102.917 39.2143 103.006 39.2423 103.085 39.2423C103.164 39.2423 103.23 39.2729 103.317 39.2729H103.572C103.631 39.2729 103.717 39.3009 103.804 39.3009H104.357L104.472 39.2729H104.877L104.966 39.2423H105.17L105.254 39.2143H105.372L105.458 39.1862H105.545L105.662 39.1557H105.749L105.864 39.1276L105.953 39.0996H106.039L106.154 39.069L106.243 39.0409H106.328L106.417 39.0104L106.552 38.9874L106.639 38.9568L106.725 38.9288L106.812 38.9007L106.927 38.8702L107.013 38.8421L107.102 38.8141L107.189 38.7835L107.276 38.7554L107.362 38.7274L107.449 38.6968L107.566 38.6688L107.653 38.6102L107.74 38.5821L107.826 38.5515L107.913 38.5235L108 38.4649L108.089 38.4368L108.176 38.4062L108.262 38.3476C106.466 36.1573 105.491 33.4082 105.507 30.5755C105.505 28.879 105.851 27.2001 106.524 25.6431C107.198 24.086 108.184 22.6839 109.422 21.5238L109.363 21.4932C109.335 21.4652 109.307 21.4371 109.277 21.4371C109.249 21.4065 109.218 21.3785 109.19 21.3785C109.147 21.3565 109.108 21.3272 109.075 21.2918L108.986 21.2332C108.943 21.2264 108.902 21.2058 108.871 21.1746C108.843 21.1746 108.813 21.1465 108.785 21.1159C108.741 21.1087 108.701 21.0892 108.668 21.0599C108.64 21.0599 108.609 21.0293 108.581 21.0293L108.466 20.9706C108.436 20.9426 108.408 20.9426 108.377 20.9146C108.346 20.8865 108.29 20.884 108.262 20.8559C108.218 20.8491 108.177 20.8286 108.145 20.7973L108.058 20.7693C108 20.7387 107.972 20.7387 107.944 20.7106C107.916 20.6826 107.857 20.6826 107.826 20.6826C107.798 20.652 107.768 20.652 107.712 20.624C107.656 20.5959 107.653 20.5959 107.625 20.5959C107.566 20.5653 107.538 20.5653 107.508 20.5373C107.477 20.5373 107.421 20.5067 107.393 20.5067C107.365 20.5067 107.334 20.4787 107.276 20.4481L107.159 20.42L107.062 20.3793C107.003 20.3487 106.975 20.3487 106.947 20.3206C106.888 20.3206 106.86 20.3206 106.83 20.2926C106.799 20.2645 106.743 20.262 106.715 20.262C106.687 20.262 106.628 20.234 106.598 20.234C106.567 20.234 106.511 20.2059 106.483 20.2059C106.455 20.2059 106.394 20.1753 106.366 20.1753C106.338 20.1753 106.279 20.1473 106.251 20.1473C106.223 20.1473 106.162 20.1167 106.134 20.1167C106.106 20.1167 106.047 20.1167 106.017 20.0887C105.96 20.0887 105.93 20.0887 105.902 20.0606H105.787C105.744 20.0367 105.694 20.0261 105.644 20.03C105.603 20.0314 105.563 20.0217 105.527 20.002H105.412C105.382 20.002 105.323 19.9714 105.295 19.9714H105.18C105.15 19.9714 105.091 19.9434 105.063 19.9434H104.808C104.78 19.9153 104.752 19.9153 104.694 19.9153H103.562C103.483 19.9124 103.405 19.9218 103.33 19.9434H103.075C103.01 19.9661 102.942 19.9757 102.874 19.9714H102.815C102.761 19.996 102.701 20.0065 102.642 20.002L102.583 20.03C102.523 20.025 102.464 20.0356 102.41 20.0606H102.323C102.264 20.0606 102.236 20.0887 102.178 20.0887C102.119 20.0887 102.119 20.1167 102.06 20.1167L101.974 20.1473C101.924 20.1401 101.872 20.15 101.828 20.1753H101.742C101.683 20.2059 101.625 20.2059 101.568 20.234H101.538C99.6037 20.7622 97.8811 21.8776 96.6077 23.4263C95.3344 24.9749 94.5729 26.8806 94.4285 28.8804C94.4035 28.9444 94.3939 29.0134 94.4005 29.0818V29.3367V29.5916V29.8261V30.081C94.3941 30.1594 94.4037 30.2383 94.4285 30.313V30.5679C94.4535 30.6425 94.4638 30.7213 94.4591 30.7998C94.4871 30.889 94.4871 30.9757 94.5177 31.0547L94.5101 31.0853ZM99.6694 38.2227L94.3928 30.1039L99.6694 38.2227Z" fill="#3F8BCA"/>
<path fill-rule="evenodd" clip-rule="evenodd" d="M117.956 20.0081C120.475 20.014 122.91 20.9204 124.819 22.5637C126.729 24.2071 127.988 26.479 128.37 28.9694C128.752 31.4597 128.23 34.0045 126.9 36.1442C125.57 38.2839 123.519 39.8776 121.117 40.6376H121.084L120.184 40.8696C119.451 41.034 118.702 41.1118 117.951 41.1016C117.951 41.1016 117.342 43.3065 116.587 46.4979C115.833 49.6893 114.846 53.8673 114.092 57.8413L117.915 63.3268L121.785 57.8514C120.742 52.891 117.961 41.1117 117.961 41.1117H120.689C123.125 42.4755 125.068 46.6815 124.767 51.8178C124.572 51.8814 124.402 52.0057 124.282 52.1726C124.162 52.3395 124.099 52.5403 124.102 52.7457C124.102 53.0073 124.206 53.2582 124.391 53.4432C124.576 53.6282 124.827 53.7322 125.088 53.7322C125.35 53.7322 125.601 53.6282 125.786 53.4432C125.971 53.2582 126.075 53.0073 126.075 52.7457C126.07 52.5681 126.019 52.3949 125.927 52.2427C125.836 52.0904 125.707 51.9643 125.552 51.8764C125.843 46.7987 124.16 42.7661 122.07 41.1704C124.853 41.4645 127.429 42.7764 129.303 44.8541C131.178 46.9318 132.218 49.6288 132.226 52.427V59.0699C132.236 59.841 132.158 60.6107 131.994 61.3641V70.2909C127.793 72.4153 123.15 73.5184 118.443 73.5103H117.602C113.592 73.3971 109.645 72.48 105.996 70.8134C105.269 70.4922 104.545 70.115 103.819 69.7097V61.0046C103.703 60.3628 103.645 59.7119 103.646 59.0597V52.4168C103.658 49.7283 104.623 47.1312 106.369 45.0864C108.115 43.0416 110.528 41.6813 113.182 41.2468C112.195 42.32 111.469 44.033 111.119 45.6287C110.133 45.5395 109.177 46.062 108.392 46.9338C107.579 47.8774 107.002 49.0011 106.709 50.2119C106.623 50.6172 106.567 51.0251 106.508 51.4304C106.436 51.4946 106.382 51.5767 106.351 51.6684C106.321 51.7601 106.315 51.8583 106.335 51.9529C106.366 52.1005 106.452 52.2307 106.575 52.3169C106.699 52.4031 106.851 52.4389 107 52.4168C107.073 52.4087 107.143 52.3849 107.206 52.3471C107.269 52.3094 107.323 52.2585 107.364 52.198C107.405 52.1376 107.433 52.0689 107.446 51.9967C107.458 51.9244 107.455 51.8504 107.436 51.7796C107.409 51.6895 107.37 51.6037 107.319 51.5247C107.351 51.1632 107.408 50.8046 107.492 50.4515C107.744 49.356 108.263 48.3395 109.001 47.4921C109.641 46.7962 110.365 46.3603 111.119 46.4189C111.229 46.4211 111.337 46.4409 111.441 46.4775H111.469C111.583 46.5336 111.701 46.5642 111.818 46.6228C112.57 46.9415 113.064 47.6424 113.296 48.5066C113.584 49.5401 113.594 50.6311 113.327 51.67C113.238 51.9886 113.151 52.2792 113.036 52.5978C112.924 52.6405 112.831 52.724 112.777 52.8316C112.724 52.9393 112.712 53.0633 112.746 53.179C112.756 53.2517 112.781 53.3216 112.819 53.3845C112.857 53.4474 112.907 53.502 112.967 53.5453C113.026 53.5885 113.093 53.6194 113.165 53.6362C113.236 53.653 113.311 53.6553 113.383 53.6429C113.454 53.6369 113.523 53.6156 113.585 53.5804C113.647 53.5452 113.7 53.4969 113.742 53.439C113.783 53.3811 113.811 53.3148 113.825 53.2448C113.838 53.1749 113.836 53.1028 113.819 53.0337C113.819 52.9751 113.791 52.947 113.791 52.919C113.91 52.5858 114.007 52.2452 114.081 51.8994C114.37 50.7273 114.37 49.5027 114.081 48.3307C113.949 47.8059 113.703 47.3162 113.363 46.8955C113.022 46.4747 112.594 46.133 112.108 45.8938C112.05 45.8657 112.078 45.8657 111.991 45.8657C112.019 45.2565 112.455 42.6157 114.4 41.1347C114.573 41.1347 114.775 41.1066 114.979 41.1066H117.969C116.977 41.1197 115.988 40.9831 115.037 40.7013L114.273 40.4668C111.952 39.6034 110.008 37.9517 108.782 35.8006C107.556 33.6495 107.124 31.1357 107.564 28.6988C108.003 26.262 109.284 24.0569 111.184 22.4692C113.085 20.8815 115.482 20.0122 117.959 20.0132L117.956 20.0081Z" fill="#EE8322"/>
<path d="M111.163 89.7574C99.906 88.1617 91.4915 82.5614 88.3001 78.9366C79.1235 81.3429 74.6346 81.7202 73.9081 79.0513C73.2989 76.8464 76.5183 72.8724 82.7279 66.1684C78.4281 59.7132 75.9737 52.2059 75.6297 44.4575C75.2857 36.709 77.0651 29.0138 80.7759 22.203C84.4866 15.3921 89.9876 9.72454 96.6847 5.81227C103.382 1.90001 111.02 -0.108213 118.776 0.00449625C126.531 0.117206 134.108 2.34657 140.689 6.4518C147.269 10.557 152.603 16.3821 156.115 23.2979C159.626 30.2137 161.181 37.9574 160.612 45.6926C160.043 53.4277 157.371 60.8605 152.886 67.188C149.262 72.8386 144.273 77.485 138.379 80.698C132.261 84.0347 117.14 88.618 117.199 79.6249C116.24 79.5943 115.254 79.5076 114.298 79.4209C108.676 78.7817 103.282 76.8351 98.5467 73.737C93.8119 70.639 89.8681 66.4755 87.0311 61.5798C84.194 56.6842 82.5425 51.1923 82.2087 45.5438C81.8748 39.8954 82.868 34.2472 85.1087 29.0515C84.5435 28.3992 84.2337 27.5643 84.2369 26.7012C84.2334 25.9861 84.442 25.286 84.8365 24.6896C85.231 24.0931 85.7935 23.627 86.4529 23.3503C87.1123 23.0737 87.839 22.9988 88.541 23.1352C89.2429 23.2716 89.8887 23.6132 90.3965 24.1167C90.9043 24.6202 91.2513 25.2631 91.3936 25.9638C91.536 26.6646 91.4673 27.3919 91.1962 28.0537C90.9251 28.7154 90.4638 29.2818 89.8707 29.6813C89.2776 30.0808 88.5793 30.2954 87.8642 30.298H87.7189C85.555 35.388 84.6915 40.9364 85.2062 46.4433C85.7209 51.9502 87.5977 57.2425 90.6675 61.8433C93.7373 66.4441 97.9035 70.2088 102.791 72.7982C107.678 75.3877 113.133 76.7204 118.664 76.6764C124.194 76.6323 129.627 75.2129 134.473 72.546C139.318 69.8791 143.424 66.0485 146.42 61.3994C149.416 56.7503 151.208 51.4287 151.635 45.9144C152.062 40.4 151.111 34.866 148.866 29.8111H148.611C147.897 29.8081 147.199 29.5932 146.607 29.1938C146.015 28.7944 145.554 28.2284 145.283 27.5672C145.013 26.906 144.944 26.1795 145.087 25.4794C145.229 24.7794 145.576 24.1372 146.083 23.6342C146.59 23.1312 147.235 22.7899 147.937 22.6535C148.638 22.5171 149.364 22.5917 150.023 22.8679C150.681 23.1441 151.244 23.6094 151.638 24.2051C152.032 24.8007 152.241 25.5 152.238 26.2144C152.231 27.0485 151.945 27.8562 151.425 28.5085C153.848 33.8826 154.924 39.7666 154.559 45.6504C154.194 51.5342 152.399 57.2401 149.33 62.2735C146.262 67.3069 142.012 71.5159 136.949 74.5355C131.886 77.5551 126.163 79.2941 120.276 79.6019C119.722 84.7689 133.276 80.0658 136.929 78.0725C142.408 75.0859 147.041 70.7598 150.395 65.498L150.426 65.4419C154.627 59.522 157.119 52.5605 157.628 45.3192C158.137 38.078 156.644 30.8363 153.312 24.3868C149.981 17.9374 144.939 12.5288 138.739 8.75314C132.539 4.97751 125.42 2.98038 118.161 2.98038C110.902 2.98038 103.783 4.97751 97.5829 8.75314C91.383 12.5288 86.3413 17.9374 83.0098 24.3868C79.6783 30.8363 78.1854 38.078 78.6945 45.3192C79.2036 52.5605 81.6952 59.522 85.8963 65.4419L86.5922 66.4284L85.751 67.3282C79.7454 73.7697 76.554 77.3664 76.814 78.2662C76.9313 78.7301 80.6376 77.8584 88.5066 75.7707L89.4931 75.5158L90.1048 76.3595C92.3378 79.4923 100.316 85.1512 111.458 86.7469C111.806 86.0848 112.327 85.5297 112.966 85.1413C113.605 84.7528 114.338 84.5457 115.086 84.542H115.29L115.346 84.57H115.522C116.218 84.6491 116.885 84.8976 117.464 85.294L117.523 85.3526C117.551 85.3832 117.609 85.4112 117.64 85.4393L117.696 85.4979L117.755 85.5259V85.5565H117.767L117.798 85.5846L117.826 85.6152L117.854 85.6432L117.885 85.6712H117.913L117.943 85.7299L117.971 85.7605C118.158 85.9445 118.324 86.1488 118.466 86.3697L118.494 86.3977L118.522 86.4564L118.552 86.4844L118.58 86.543L118.611 86.5711V86.6017L118.639 86.6297V86.6552H118.667V86.7138L118.698 86.7444V86.7724L118.726 86.8005L118.754 86.8591V86.8871L118.784 86.9458L118.812 86.9764V87.0044L118.843 87.0324V87.0911L118.871 87.1191V87.1497L118.899 87.1777V87.2364L118.93 87.267V87.295L118.958 87.3536V87.3817L118.986 87.4403C119.091 87.828 119.15 88.2267 119.162 88.6282C119.172 89.6186 118.822 90.5791 118.177 91.3304C117.532 92.0817 116.635 92.5724 115.654 92.711C114.673 92.8496 113.676 92.6266 112.847 92.0835C112.019 91.5405 111.417 90.7146 111.152 89.7599L111.163 89.7574ZM115.081 87.0605C115.388 87.0559 115.69 87.1428 115.948 87.31C116.206 87.4773 116.408 87.7173 116.53 87.9998C116.651 88.2823 116.686 88.5945 116.63 88.8967C116.573 89.199 116.429 89.4778 116.214 89.6977C115.999 89.9175 115.724 90.0687 115.423 90.1319C115.122 90.1951 114.809 90.1676 114.524 90.0527C114.238 89.9379 113.994 89.741 113.821 89.4869C113.647 89.2328 113.554 88.9331 113.551 88.6256C113.55 88.2162 113.709 87.8227 113.995 87.5299C114.282 87.2371 114.671 87.0685 115.081 87.0605ZM113.806 87.0299H113.778V87.0605H113.747L113.719 87.0885V87.1166H113.689L113.661 87.1471L113.633 87.1752L113.602 87.2058L113.574 87.2338L113.543 87.2644V87.2924H113.515V87.3205H113.487V87.3511L113.457 87.3791L113.429 87.4377H113.401V87.4658L113.37 87.5244L113.342 87.5524L113.314 87.583V87.6111L113.283 87.6391V87.6748L113.255 87.7028V87.7309H113.225V87.7895L113.197 87.8201V87.8787H113.179V87.9068V87.9297L113.148 87.9603V88.0164V88.047H113.12V88.103V88.1336H113.092V88.1617V88.1846V88.2407V88.2713L113.062 88.2993V88.3579V88.4446V88.5033V88.5619V88.6485V88.6944V88.7225V88.7811V88.8397V88.8703V88.8984V88.9493L113.092 88.9774V89.0054V89.036V89.0946L113.12 89.1227V89.1507V89.1813L113.148 89.2093V89.268L113.179 89.3546L113.207 89.3827V89.4133V89.4413L113.235 89.4719V89.4999C113.294 89.5866 113.324 89.6452 113.38 89.7319V89.7599H113.411V89.7905L113.439 89.8186L113.467 89.8466V89.8772H113.498V89.9052L113.526 89.9358L113.554 89.9639L113.584 89.9919V90.0225H113.612C113.801 90.2257 114.031 90.3874 114.286 90.4971C114.541 90.6068 114.816 90.6622 115.093 90.6598C115.363 90.6625 115.63 90.6117 115.88 90.5104C116.13 90.4091 116.357 90.2594 116.548 90.0697C116.74 89.8801 116.892 89.6544 116.996 89.4056C117.1 89.1569 117.153 88.89 117.153 88.6205C117.151 88.0749 116.933 87.5522 116.547 87.1663C116.162 86.7805 115.639 86.5629 115.093 86.5609C114.628 86.5656 114.178 86.7293 113.819 87.0248L113.806 87.0299Z" fill="#3F8BCA"/>
<path d="M15.121 110.2C17.0879 111.174 18.7153 112.719 19.7909 114.633C20.8717 116.555 21.4121 118.816 21.4121 121.418C21.4121 124.02 20.8709 126.275 19.7884 128.183C18.7145 130.084 17.0862 131.612 15.121 132.563C13.0903 133.565 10.6891 134.067 7.91739 134.067H0V108.65H7.91739C10.6874 108.65 13.0886 109.167 15.121 110.2ZM15.432 128.731C17.1586 126.993 18.0219 124.555 18.0219 121.418C18.0219 118.256 17.1518 115.786 15.4116 114.011C13.6715 112.235 11.1734 111.348 7.91739 111.349H3.31378V131.339H7.90209C11.1955 131.339 13.7055 130.47 15.432 128.731Z" fill="#3F8BCA"/>
<path d="M30.8605 132.673C28.9303 131.578 27.3372 129.975 26.2543 128.039C25.1402 125.983 24.5566 123.683 24.5566 121.345C24.5566 119.007 25.1402 116.706 26.2543 114.651C27.34 112.714 28.9357 111.111 30.8681 110.017C32.8525 108.928 35.0794 108.357 37.3428 108.357C39.6062 108.357 41.833 108.928 43.8174 110.017C45.7408 111.106 47.3279 112.703 48.4057 114.633C49.5063 116.699 50.082 119.004 50.082 121.345C50.082 123.686 49.5063 125.991 48.4057 128.056C47.3287 129.987 45.7413 131.584 43.8174 132.673C41.833 133.761 39.6062 134.332 37.3428 134.332C35.0794 134.332 32.8525 133.761 30.8681 132.673H30.8605ZM42.1146 130.21C43.5458 129.373 44.71 128.147 45.4717 126.675C46.2754 125.011 46.6928 123.187 46.6928 121.34C46.6928 119.492 46.2754 117.668 45.4717 116.004C44.7093 114.542 43.5525 113.323 42.1325 112.484C40.6577 111.672 39.0012 111.245 37.3173 111.245C35.6334 111.245 33.9769 111.672 32.5021 112.484C31.0822 113.322 29.9261 114.542 29.1654 116.004C28.3497 117.534 27.9418 119.318 27.9418 121.358C27.9022 123.206 28.3226 125.036 29.1654 126.683C29.9246 128.157 31.0882 129.385 32.5199 130.223C33.9883 131.036 35.6391 131.462 37.3173 131.462C38.9955 131.462 40.6462 131.036 42.1146 130.223V130.21Z" fill="#3F8BCA"/>
<path d="M54.8994 114.65C55.9766 112.71 57.5631 111.101 59.4877 109.998C61.4427 108.875 63.6623 108.296 65.9165 108.32C68.6882 108.32 71.1081 108.989 73.1762 110.326C75.2596 111.685 76.8463 113.682 77.6982 116.018H73.7217C73.0791 114.559 72.0136 113.326 70.6628 112.478C69.3373 111.652 67.7509 111.239 65.9037 111.239C64.2279 111.213 62.5762 111.641 61.1242 112.478C59.7091 113.314 58.56 114.535 57.8104 115.998C57.0167 117.662 56.6048 119.481 56.6048 121.324C56.6048 123.167 57.0167 124.987 57.8104 126.651C58.5588 128.115 59.7081 129.336 61.1242 130.171C62.5755 131.01 64.2275 131.439 65.9037 131.412C67.7526 131.412 69.339 131.004 70.6628 130.189C72.0155 129.352 73.0822 128.125 73.7217 126.668H77.6982C76.8421 128.989 75.255 130.967 73.1762 132.307C71.1098 133.632 68.6899 134.294 65.9165 134.293C63.661 134.32 61.4389 133.747 59.4775 132.633C57.5549 131.544 55.9679 129.948 54.8892 128.019C53.7881 125.963 53.2119 123.667 53.2119 121.335C53.2119 119.002 53.7881 116.706 54.8892 114.65H54.8994Z" fill="#3F8BCA"/>
<path d="M86.1834 133.438C84.9395 132.907 83.8623 132.05 83.0659 130.957C82.3068 129.886 81.8989 128.605 81.8984 127.292H85.4365C85.5388 128.443 86.0658 129.515 86.915 130.3C87.7715 131.112 89.0299 131.518 90.6902 131.518C92.2706 131.518 93.5171 131.123 94.4296 130.333C94.8716 129.96 95.2239 129.493 95.4605 128.966C95.697 128.438 95.8117 127.864 95.7959 127.287C95.8334 126.424 95.5481 125.577 94.9955 124.913C94.4466 124.298 93.7577 123.823 92.9869 123.529C91.9246 123.13 90.8413 122.79 89.7419 122.51C88.3674 122.171 87.0195 121.733 85.7093 121.197C84.6823 120.745 83.79 120.034 83.1194 119.135C82.404 118.198 82.0454 116.94 82.0437 115.36C82.0203 114.054 82.3888 112.772 83.1016 111.679C83.8357 110.584 84.868 109.722 86.0764 109.196C87.4608 108.59 88.9601 108.292 90.4709 108.322C92.8501 108.322 94.8043 108.916 96.3338 110.106C97.0715 110.672 97.6818 111.388 98.1249 112.205C98.5681 113.023 98.8341 113.925 98.9058 114.852H95.2504C95.1281 113.879 94.6183 113.021 93.721 112.28C92.8237 111.539 91.6342 111.168 90.1523 111.166C88.7656 111.166 87.6347 111.525 86.7595 112.242C85.8843 112.959 85.4467 113.963 85.4467 115.252C85.411 116.079 85.6918 116.887 86.2318 117.514C86.7624 118.103 87.4243 118.56 88.164 118.847C88.9304 119.151 90.007 119.498 91.3937 119.887C92.7734 120.246 94.1261 120.703 95.4416 121.253C96.4777 121.716 97.3813 122.431 98.0697 123.333C98.7987 124.268 99.1632 125.538 99.1632 127.144C99.1644 128.38 98.8238 129.592 98.1793 130.646C97.4682 131.786 96.4541 132.706 95.2504 133.302C93.837 134.011 92.2709 134.361 90.6902 134.322C89.1421 134.351 87.6056 134.05 86.1834 133.438Z" fill="#3F8BCA"/>
<path d="M103.494 133.64C103.175 133.323 102.957 132.919 102.868 132.479C102.78 132.038 102.825 131.581 102.997 131.166C103.169 130.751 103.461 130.397 103.836 130.149C104.21 129.901 104.65 129.77 105.1 129.773C105.389 129.768 105.677 129.824 105.943 129.937C106.21 130.05 106.451 130.217 106.649 130.428C107.059 130.862 107.286 131.437 107.286 132.034C107.286 132.631 107.059 133.205 106.649 133.64C106.451 133.851 106.211 134.018 105.944 134.131C105.677 134.244 105.389 134.3 105.1 134.295C104.801 134.301 104.505 134.246 104.229 134.134C103.952 134.021 103.702 133.853 103.494 133.64Z" fill="#3F8BCA"/>
<path d="M131.214 134.067L127.9 130.709C126.776 131.915 125.424 132.888 123.924 133.572C122.413 134.213 120.785 134.53 119.144 134.502C117.542 134.535 115.952 134.212 114.49 133.557C113.204 132.98 112.114 132.043 111.352 130.857C110.595 129.634 110.208 128.217 110.238 126.779C110.209 125.09 110.741 123.439 111.752 122.086C112.762 120.738 114.251 119.675 116.221 118.895C115.543 118.129 114.979 117.27 114.543 116.345C114.197 115.541 114.024 114.672 114.034 113.796C114.021 112.77 114.306 111.763 114.854 110.896C115.428 110.009 116.244 109.306 117.207 108.872C118.317 108.365 119.526 108.115 120.745 108.14C121.933 108.112 123.11 108.374 124.174 108.905C125.106 109.374 125.87 110.119 126.363 111.038C126.855 111.975 127.081 113.028 127.018 114.084H123.705C123.73 113.087 123.451 112.303 122.866 111.732C122.566 111.445 122.211 111.221 121.823 111.074C121.434 110.927 121.02 110.859 120.605 110.875C119.744 110.834 118.901 111.129 118.252 111.696C117.96 111.96 117.729 112.284 117.574 112.646C117.42 113.009 117.346 113.4 117.357 113.794C117.363 114.541 117.571 115.272 117.959 115.91C118.542 116.818 119.22 117.662 119.983 118.425L127.572 126.05L128.229 125.03L130.709 120.873H134.278L131.288 126.052C130.873 126.781 130.388 127.549 129.828 128.346L135.555 134.067H131.214ZM122.698 130.893C123.848 130.309 124.87 129.502 125.706 128.52L118.227 121.015C115.115 122.205 113.559 124.09 113.559 126.669C113.544 127.341 113.675 128.007 113.943 128.624C114.21 129.24 114.608 129.79 115.109 130.238C116.141 131.186 117.484 131.66 119.139 131.66C120.368 131.681 121.584 131.422 122.698 130.903V130.893Z" fill="#EE8322"/>
<path d="M158.65 134.067H155.337L141.985 113.83V134.067H138.671V108.602H141.985L155.337 128.814V108.612H158.65V134.067Z" fill="#3F8BCA"/>
<path d="M167.552 108.65V124.737C167.552 126.999 168.105 128.677 169.211 129.771C170.317 130.866 171.855 131.413 173.825 131.413C175.771 131.413 177.3 130.866 178.413 129.771C179.526 128.677 180.079 126.999 180.073 124.737V108.65H183.386V124.709C183.386 126.825 182.962 128.609 182.112 130.062C181.313 131.46 180.112 132.585 178.666 133.292C177.136 133.989 175.475 134.35 173.794 134.35C172.114 134.35 170.452 133.989 168.923 133.292C167.479 132.589 166.283 131.462 165.495 130.062C164.655 128.618 164.235 126.833 164.235 124.709V108.65H167.552Z" fill="#3F8BCA"/>
<path d="M202.315 134.067L196.259 123.669H192.246V134.067H188.933V108.65H197.141C199.059 108.65 200.682 108.978 202.009 109.634C203.242 110.208 204.278 111.135 204.984 112.298C205.709 113.613 206.044 115.107 205.95 116.606C205.856 118.105 205.337 119.546 204.454 120.76C203.444 122.1 201.93 122.988 199.911 123.424L206.284 134.077L202.315 134.067ZM192.246 121.005H197.135C198.935 121.005 200.284 120.562 201.183 119.675C202.082 118.788 202.533 117.602 202.534 116.119C202.534 114.61 202.091 113.442 201.204 112.616C200.317 111.79 198.957 111.377 197.125 111.375H192.246V121.005Z" fill="#3F8BCA"/>
<path d="M214.663 133.438C213.419 132.907 212.341 132.05 211.543 130.957C210.786 129.885 210.379 128.605 210.378 127.292H213.916C214.017 128.443 214.543 129.515 215.392 130.3C216.257 131.115 217.515 131.523 219.167 131.523C220.751 131.523 221.997 131.128 222.907 130.338C223.349 129.966 223.702 129.498 223.939 128.971C224.176 128.444 224.291 127.87 224.275 127.292C224.313 126.428 224.027 125.582 223.472 124.919C222.925 124.303 222.236 123.828 221.466 123.535C220.403 123.136 219.319 122.795 218.219 122.515C216.845 122.176 215.498 121.738 214.189 121.202C213.161 120.751 212.269 120.04 211.599 119.14C210.88 118.204 210.522 116.945 210.523 115.365C210.496 114.059 210.862 112.775 211.573 111.679C212.306 110.584 213.338 109.722 214.546 109.196C215.933 108.589 217.436 108.291 218.95 108.322C221.33 108.322 223.284 108.916 224.813 110.106C225.55 110.673 226.158 111.389 226.6 112.206C227.042 113.024 227.307 113.926 227.378 114.852H223.727C223.608 113.879 223.099 113.021 222.198 112.28C221.297 111.539 220.108 111.168 218.629 111.166C217.243 111.166 216.112 111.525 215.236 112.242C214.361 112.959 213.924 113.963 213.924 115.253C213.888 116.078 214.168 116.886 214.706 117.514C215.237 118.104 215.9 118.561 216.641 118.847C217.406 119.15 218.484 119.497 219.868 119.887C221.249 120.247 222.602 120.703 223.919 121.253C224.954 121.715 225.857 122.431 226.544 123.333C227.277 124.268 227.642 125.538 227.64 127.144C227.642 128.38 227.3 129.593 226.654 130.646C225.945 131.787 224.931 132.707 223.727 133.303C222.314 134.012 220.748 134.362 219.167 134.322C217.62 134.351 216.084 134.05 214.663 133.438Z" fill="#3F8BCA"/>
<path d="M231.963 133.64C231.644 133.323 231.427 132.919 231.338 132.479C231.25 132.039 231.294 131.582 231.466 131.168C231.638 130.753 231.93 130.399 232.304 130.15C232.678 129.902 233.118 129.77 233.567 129.773C233.857 129.768 234.145 129.824 234.412 129.937C234.679 130.05 234.92 130.217 235.119 130.428C235.528 130.862 235.756 131.437 235.756 132.034C235.756 132.631 235.528 133.205 235.119 133.64C234.92 133.851 234.679 134.018 234.412 134.131C234.145 134.244 233.857 134.299 233.567 134.295C233.269 134.301 232.973 134.247 232.697 134.134C232.421 134.021 232.171 133.853 231.963 133.64Z" fill="#3F8BCA"/>
<path d="M24.1417 144.163V153.934H22.8672V144.163H24.1417Z" fill="#050606"/>
<path d="M35.3981 153.934H34.1236L28.9923 146.154V153.934H27.7178V144.151H28.9923L34.1236 151.91V144.151H35.3981V153.934Z" fill="#050606"/>
<path d="M47.0464 144.163L43.3605 153.934H41.8871L38.2012 144.163H39.5598L42.6314 152.575L45.6903 144.163H47.0464Z" fill="#050606"/>
<path d="M51.1316 145.201V148.466H54.7003V149.519H51.1316V152.884H55.1132V153.934H49.8545V144.151H55.1132V145.201H51.1316Z" fill="#050606"/>
<path d="M59.8156 153.694C59.3371 153.491 58.923 153.161 58.6176 152.741C58.3244 152.329 58.1675 151.836 58.169 151.331H59.5276C59.5679 151.774 59.7703 152.186 60.096 152.488C60.5003 152.827 61.0202 152.996 61.5465 152.96C62.0654 152.989 62.5771 152.827 62.9841 152.503C63.1542 152.36 63.2898 152.18 63.3807 151.977C63.4716 151.774 63.5156 151.553 63.5092 151.331C63.5239 151 63.4138 150.675 63.2008 150.421C62.9926 150.184 62.7303 150.001 62.4361 149.888C62.0274 149.734 61.6104 149.603 61.187 149.496C60.6593 149.364 60.1421 149.194 59.6398 148.986C59.2444 148.812 58.9009 148.539 58.6431 148.193C58.3483 147.769 58.203 147.258 58.2301 146.743C58.2211 146.241 58.3622 145.748 58.6354 145.328C58.9176 144.906 59.3148 144.575 59.78 144.372C60.3119 144.14 60.8874 144.026 61.4674 144.035C62.2743 144.001 63.0687 144.244 63.7183 144.724C64.0016 144.941 64.2361 145.216 64.4065 145.53C64.5769 145.844 64.6794 146.19 64.7073 146.546H63.3053C63.2453 146.153 63.0341 145.798 62.7165 145.557C62.3234 145.257 61.8367 145.105 61.3425 145.129C60.8714 145.106 60.4072 145.251 60.0323 145.537C59.8634 145.676 59.7294 145.854 59.6409 146.054C59.5524 146.254 59.5119 146.473 59.5225 146.692C59.509 147.009 59.6175 147.32 59.8258 147.561C60.0297 147.787 60.2838 147.961 60.5676 148.071C60.8633 148.188 61.2771 148.321 61.809 148.471C62.339 148.609 62.8586 148.785 63.3639 148.996C63.7658 149.173 64.1165 149.448 64.3836 149.796C64.6846 150.223 64.8328 150.738 64.8042 151.26C64.8051 151.734 64.6745 152.2 64.4269 152.605C64.1548 153.043 63.7665 153.396 63.3053 153.625C62.762 153.898 62.1596 154.033 61.5516 154.018C60.9565 154.035 60.3645 153.924 59.8156 153.694Z" fill="#050606"/>
<path d="M74.0924 144.163V145.201H71.4286V153.934H70.1541V145.201H67.4775V144.163H74.0924Z" fill="#050606"/>
<path d="M83.4855 144.163V153.934H82.2109V144.163H83.4855Z" fill="#050606"/>
<path d="M94.7419 153.934H93.4673L88.3361 146.154V153.934H87.0615V144.151H88.3361L93.4673 151.91V144.151H94.7419V153.934Z" fill="#050606"/>
<path d="M110.307 144.163L107.126 150.248V153.934H105.851V150.248L102.652 144.163H104.07L106.481 149.106L108.892 144.158L110.307 144.163Z" fill="#050606"/>
<path d="M115.003 153.397C114.256 152.978 113.638 152.361 113.219 151.613C112.791 150.823 112.566 149.939 112.566 149.041C112.566 148.143 112.791 147.259 113.219 146.469C113.638 145.721 114.256 145.104 115.003 144.685C115.766 144.267 116.622 144.047 117.491 144.047C118.361 144.047 119.217 144.267 119.979 144.685C120.721 145.105 121.332 145.723 121.746 146.469C122.169 147.263 122.39 148.149 122.39 149.049C122.39 149.948 122.169 150.834 121.746 151.628C121.332 152.374 120.721 152.992 119.979 153.413C119.217 153.831 118.361 154.05 117.491 154.05C116.622 154.05 115.766 153.831 115.003 153.413V153.397ZM119.337 152.449C119.889 152.13 120.336 151.658 120.627 151.09C120.937 150.451 121.098 149.75 121.098 149.04C121.098 148.329 120.937 147.628 120.627 146.989C120.338 146.427 119.896 145.959 119.352 145.638C118.786 145.325 118.149 145.16 117.502 145.16C116.854 145.16 116.217 145.325 115.651 145.638C115.108 145.96 114.666 146.428 114.376 146.989C114.068 147.629 113.907 148.33 113.907 149.04C113.907 149.75 114.068 150.451 114.376 151.09C114.668 151.657 115.115 152.129 115.666 152.449C116.23 152.762 116.864 152.926 117.509 152.926C118.154 152.926 118.788 152.762 119.352 152.449H119.337Z" fill="#050606"/>
<path d="M126.721 144.163V150.345C126.721 151.214 126.933 151.862 127.359 152.28C127.857 152.688 128.481 152.912 129.125 152.912C129.769 152.912 130.394 152.688 130.892 152.28C131.317 151.862 131.529 151.214 131.529 150.345V144.163H132.803V150.332C132.828 151.049 132.658 151.759 132.311 152.387C132.005 152.924 131.543 153.356 130.986 153.625C130.399 153.894 129.761 154.033 129.115 154.033C128.469 154.033 127.831 153.894 127.244 153.625C126.689 153.357 126.229 152.924 125.926 152.387C125.585 151.757 125.418 151.048 125.442 150.332V144.163H126.721Z" fill="#050606"/>
<path d="M141.488 153.933L139.16 149.939H137.631V153.933H136.356V144.163H139.51C140.154 144.142 140.795 144.272 141.381 144.543C141.855 144.761 142.254 145.116 142.525 145.562C142.768 145.958 142.909 146.407 142.938 146.871C142.966 147.334 142.88 147.797 142.688 148.22C142.495 148.642 142.202 149.011 141.833 149.293C141.465 149.576 141.033 149.763 140.575 149.84L143.03 153.931L141.488 153.933ZM137.618 148.914H139.497C140.19 148.914 140.708 148.746 141.054 148.405C141.228 148.224 141.363 148.009 141.45 147.774C141.538 147.539 141.577 147.289 141.564 147.038C141.58 146.79 141.542 146.542 141.454 146.309C141.367 146.077 141.23 145.865 141.054 145.69C140.715 145.374 140.193 145.213 139.492 145.213H137.613L137.618 148.914Z" fill="#050606"/>
<path d="M158.94 144.163V153.934H157.666V149.504H152.688V153.934H151.413V144.163H152.688V148.453H157.663V144.163H158.94Z" fill="#050606"/>
<path d="M163.793 145.201V148.466H167.361V149.519H163.793V152.884H167.772V153.934H162.516V144.151H167.772V145.201H163.793Z" fill="#050606"/>
<path d="M176.886 151.761H172.624L171.839 153.933H170.493L174.026 144.219H175.5L179.017 153.933H177.671L176.886 151.761ZM176.522 150.724L174.755 145.792L172.989 150.726L176.522 150.724Z" fill="#050606"/>
<path d="M183.236 152.896H186.657V153.934H181.959V144.163H183.234L183.236 152.896Z" fill="#050606"/>
<path d="M195.432 144.163V145.201H192.768V153.934H191.494V145.201H188.817V144.163H195.432Z" fill="#050606"/>
<path d="M205.935 144.163V153.934H204.66V149.504H199.682V153.934H198.407V144.163H199.682V148.453H204.66V144.163H205.935Z" fill="#050606"/>
<path d="M209.299 153.765C209.176 153.644 209.093 153.488 209.059 153.319C209.025 153.15 209.042 152.974 209.108 152.815C209.175 152.656 209.287 152.52 209.43 152.424C209.574 152.329 209.743 152.278 209.916 152.279C210.027 152.278 210.138 152.3 210.241 152.343C210.344 152.387 210.436 152.452 210.512 152.534C210.669 152.701 210.757 152.922 210.757 153.151C210.757 153.38 210.669 153.601 210.512 153.768C210.436 153.85 210.344 153.914 210.241 153.958C210.138 154.002 210.027 154.024 209.916 154.023C209.801 154.024 209.687 154.002 209.581 153.958C209.475 153.914 209.379 153.848 209.299 153.765Z" fill="#050606"/>
</svg>
