<svg width="22" height="22" viewBox="0 0 22 22" fill="none" xmlns="http://www.w3.org/2000/svg">
<path d="M11.0043 13.6922V13.692L10.9982 13.6924L10.8958 13.6987L10.8958 13.6984L10.8884 13.6994C10.504 13.7516 10.2077 14.081 10.2077 14.4797C10.2077 14.9147 10.5603 15.2672 10.9952 15.2672V15.2674L11.0013 15.267L11.1038 15.2608L11.1038 15.261L11.1111 15.2601C11.4956 15.2079 11.7919 14.8785 11.7919 14.4797C11.7919 14.0448 11.4393 13.6922 11.0043 13.6922ZM11.7762 7.42059L11.7764 7.42057L11.7755 7.41386C11.7233 7.02938 11.3939 6.73309 10.9952 6.73309C10.5603 6.73309 10.2077 7.08566 10.2077 7.52059V11.5713H10.2075L10.2079 11.578L10.2142 11.6713L10.214 11.6714L10.2149 11.6781C10.267 12.0625 10.5964 12.3588 10.9952 12.3588C11.4301 12.3588 11.7827 12.0063 11.7827 11.5713V7.52059H11.7829L11.7825 7.51388L11.7762 7.42059ZM20.2663 11.0002C20.2663 5.8826 16.1175 1.7335 10.9997 1.7335C5.88242 1.7335 1.73301 5.88291 1.73301 11.0002C1.73301 16.1174 5.88242 20.2668 10.9997 20.2668C16.1175 20.2668 20.2663 16.1177 20.2663 11.0002ZM3.30801 11.0002C3.30801 6.75275 6.75227 3.3085 10.9997 3.3085C15.2477 3.3085 18.6913 6.75242 18.6913 11.0002C18.6913 15.2479 15.2477 18.6918 10.9997 18.6918C6.75226 18.6918 3.30801 15.2476 3.30801 11.0002Z" fill="#0F0F0F" stroke="#0F0F0F" stroke-width="0.2" stroke-linejoin="round"/>
</svg>
