<svg width="33" height="32" viewBox="0 0 33 32" fill="none" xmlns="http://www.w3.org/2000/svg">
<path opacity="0.4" d="M28.2707 10.68L19.5373 3.69332C17.8307 2.33332 15.164 2.31998 13.4707 3.67998L4.73735 10.68C3.48401 11.68 2.72401 13.68 2.99068 15.2533L4.67068 25.3067C5.05735 27.56 7.15068 29.3333 9.43068 29.3333H23.564C25.8173 29.3333 27.9507 27.52 28.3373 25.2933L30.0173 15.24C30.2573 13.68 29.4973 11.68 28.2707 10.68Z" fill="#3F8BCA"/>
<path d="M16.5 25C15.9533 25 15.5 24.5467 15.5 24V20C15.5 19.4533 15.9533 19 16.5 19C17.0467 19 17.5 19.4533 17.5 20V24C17.5 24.5467 17.0467 25 16.5 25Z" fill="#3F8BCA"/>
</svg>
