<svg width="22" height="22" viewBox="0 0 22 22" fill="none" xmlns="http://www.w3.org/2000/svg">
<path d="M13.9698 20.4143H13.8506C9.78064 20.4143 7.81898 18.8101 7.47981 15.2168C7.44314 14.8409 7.71814 14.5018 8.10314 14.4651C8.46981 14.4284 8.81814 14.7126 8.85481 15.0884C9.12064 17.9668 10.4773 19.0393 13.8598 19.0393H13.979C17.7098 19.0393 19.0298 17.7193 19.0298 13.9884V8.01177C19.0298 4.28094 17.7098 2.96094 13.979 2.96094H13.8598C10.459 2.96094 9.10231 4.05177 8.85481 6.9851C8.80898 7.36094 8.48814 7.6451 8.10314 7.60844C7.71814 7.58094 7.44314 7.24177 7.47064 6.86594C7.78231 3.2176 9.75314 1.58594 13.8506 1.58594H13.9698C18.4706 1.58594 20.3956 3.51094 20.3956 8.01177V13.9884C20.3956 18.4893 18.4706 20.4143 13.9698 20.4143Z" fill="#FF7C74"/>
<path d="M13.75 11.6875H3.31836C2.94253 11.6875 2.63086 11.3758 2.63086 11C2.63086 10.6242 2.94253 10.3125 3.31836 10.3125H13.75C14.1259 10.3125 14.4375 10.6242 14.4375 11C14.4375 11.3758 14.1259 11.6875 13.75 11.6875Z" fill="#FF7C74"/>
<path d="M5.36249 14.7585C5.18832 14.7585 5.01415 14.6943 4.87665 14.5568L1.80582 11.486C1.53999 11.2202 1.53999 10.7802 1.80582 10.5143L4.87665 7.44352C5.14249 7.17768 5.58249 7.17768 5.84832 7.44352C6.11415 7.70935 6.11415 8.14935 5.84832 8.41518L3.26332 11.0002L5.84832 13.5852C6.11415 13.851 6.11415 14.291 5.84832 14.5568C5.71999 14.6943 5.53665 14.7585 5.36249 14.7585Z" fill="#FF7C74"/>
</svg>
