<svg width="40" height="40" viewBox="0 0 40 40" fill="none" xmlns="http://www.w3.org/2000/svg">
<path opacity="0.4" d="M33.1359 34.901C31.5526 36.0676 29.4693 36.6676 26.9859 36.6676H13.0193C12.6193 36.6676 12.2193 36.651 11.8359 36.601L23.3359 25.101L33.1359 34.901Z" fill="#3F8BCA"/>
<path opacity="0.4" d="M36.6712 13.016V26.9826C36.6712 29.466 36.0712 31.5493 34.9045 33.1326L25.1045 23.3326L36.6045 11.8326C36.6545 12.216 36.6712 12.616 36.6712 13.016Z" fill="#3F8BCA"/>
<path opacity="0.4" d="M25.0997 23.3334L34.8997 33.1334C34.4163 33.8334 33.833 34.4167 33.133 34.9L23.333 25.1L11.833 36.6C10.7664 36.5334 9.79968 36.3167 8.91635 35.9834C5.34968 34.6834 3.33301 31.5167 3.33301 26.9834V13.0167C3.33301 6.95004 6.94967 3.33337 13.0163 3.33337H26.983C31.5163 3.33337 34.683 5.35004 35.983 8.91671C36.3163 9.80004 36.533 10.7667 36.5997 11.8334L25.0997 23.3334Z" fill="#3F8BCA"/>
<path d="M25.1023 23.3327L34.9023 33.1327C34.4189 33.8327 33.8356 34.416 33.1356 34.8994L23.3356 25.0993L11.8356 36.5993C10.7689 36.5327 9.80228 36.316 8.91895 35.9827L9.56892 35.3327L35.9856 8.91602C36.3189 9.79935 36.5356 10.766 36.6023 11.8327L25.1023 23.3327Z" fill="#3F8BCA"/>
<path d="M20.3948 13.2155C19.7615 10.4655 17.3281 9.23212 15.1948 9.21545C13.0615 9.21545 10.6281 10.4488 9.99481 13.1988C9.29481 16.2488 11.1615 18.7988 12.8448 20.3988C13.5115 21.0321 14.3448 21.3321 15.1948 21.3321C16.0448 21.3321 16.8781 21.0155 17.5448 20.3988C19.2281 18.7988 21.0948 16.2488 20.3948 13.2155ZM15.2448 15.8155C14.3281 15.8155 13.5781 15.0655 13.5781 14.1488C13.5781 13.2321 14.3115 12.4821 15.2448 12.4821H15.2615C16.1781 12.4821 16.9281 13.2321 16.9281 14.1488C16.9281 15.0655 16.1615 15.8155 15.2448 15.8155Z" fill="#3F8BCA"/>
</svg>
