<svg width="33" height="32" viewBox="0 0 33 32" fill="none" xmlns="http://www.w3.org/2000/svg">
<path opacity="0.4" d="M3.16699 17.2933V9.31999C3.16699 5.63999 6.15366 2.66666 9.83366 2.66666H23.167C26.847 2.66666 29.8337 5.63999 29.8337 9.31999V18.6267C29.8337 22.2933 26.847 25.2667 23.167 25.2667H21.167C20.7537 25.2667 20.3537 25.4667 20.1003 25.8L18.1003 28.4533C17.2203 29.6267 15.7803 29.6267 14.9003 28.4533L12.9003 25.8C12.687 25.5067 12.207 25.2667 11.8337 25.2667H9.83366C6.15366 25.2667 3.16699 22.2933 3.16699 18.6267V17.2933Z" fill="#3F8BCA"/>
<path d="M16.5003 16C15.7537 16 15.167 15.4 15.167 14.6667C15.167 13.9333 15.767 13.3333 16.5003 13.3333C17.2337 13.3333 17.8337 13.9333 17.8337 14.6667C17.8337 15.4 17.247 16 16.5003 16Z" fill="#3F8BCA"/>
<path d="M21.8333 16C21.0867 16 20.5 15.4 20.5 14.6667C20.5 13.9333 21.1 13.3333 21.8333 13.3333C22.5667 13.3333 23.1667 13.9333 23.1667 14.6667C23.1667 15.4 22.58 16 21.8333 16Z" fill="#3F8BCA"/>
<path d="M11.1663 16C10.4197 16 9.83301 15.4 9.83301 14.6667C9.83301 13.9333 10.433 13.3333 11.1663 13.3333C11.8997 13.3333 12.4997 13.9333 12.4997 14.6667C12.4997 15.4 11.913 16 11.1663 16Z" fill="#3F8BCA"/>
</svg>
