<svg width="40" height="41" viewBox="0 0 40 41" fill="none" xmlns="http://www.w3.org/2000/svg">
<path opacity="0.4" d="M29.9693 18.0565V24.7232C29.9693 25.1565 29.9526 25.5732 29.9026 25.9732C29.5193 30.4732 26.8693 32.7065 21.9859 32.7065H21.3193C20.9026 32.7065 20.5026 32.9065 20.2526 33.2398L18.2526 35.9065C17.3693 37.0898 15.9359 37.0898 15.0526 35.9065L13.0526 33.2398C12.8359 32.9565 12.3526 32.7065 11.9859 32.7065H11.3193C6.00262 32.7065 3.33594 31.3899 3.33594 24.7232V18.0565C3.33594 13.1732 5.58595 10.5232 10.0693 10.1399C10.4693 10.0899 10.886 10.0732 11.3193 10.0732H21.9859C27.3026 10.0732 29.9693 12.7399 29.9693 18.0565Z" fill="#EE8322"/>
<path d="M16.6589 23.4065C15.7255 23.4065 14.9922 22.6565 14.9922 21.7398C14.9922 20.8232 15.7422 20.0732 16.6589 20.0732C17.5755 20.0732 18.3255 20.8232 18.3255 21.7398C18.3255 22.6565 17.5922 23.4065 16.6589 23.4065Z" fill="#EE8322"/>
<path d="M22.487 23.4065C21.5536 23.4065 20.8203 22.6565 20.8203 21.7398C20.8203 20.8232 21.5703 20.0732 22.487 20.0732C23.4036 20.0732 24.1536 20.8232 24.1536 21.7398C24.1536 22.6565 23.4036 23.4065 22.487 23.4065Z" fill="#EE8322"/>
<path d="M10.8385 23.4065C9.90521 23.4065 9.17188 22.6565 9.17188 21.7398C9.17188 20.8232 9.92187 20.0732 10.8385 20.0732C11.7552 20.0732 12.5052 20.8232 12.5052 21.7398C12.5052 22.6565 11.7552 23.4065 10.8385 23.4065Z" fill="#EE8322"/>
<path d="M36.6292 11.3905V18.0572C36.6292 22.9572 34.3792 25.5905 29.8958 25.9738C29.9458 25.5738 29.9625 25.1572 29.9625 24.7238V18.0572C29.9625 12.7405 27.2958 10.0738 21.9792 10.0738H11.3125C10.8792 10.0738 10.4625 10.0905 10.0625 10.1405C10.4458 5.65718 13.0958 3.40717 17.9792 3.40717H28.6458C33.9625 3.40717 36.6292 6.07385 36.6292 11.3905Z" fill="#EE8322"/>
</svg>
