<svg width="22" height="22" viewBox="0 0 22 22" fill="none" xmlns="http://www.w3.org/2000/svg">
<path d="M13.6524 16.7034H5.59485C5.11818 16.7034 4.66901 16.6576 4.26567 16.5659C4.05484 16.5384 3.79818 16.465 3.53235 16.3642C2.31318 15.9059 0.874023 14.7784 0.874023 11.9734V7.25254C0.874023 4.25504 2.59735 2.53174 5.59485 2.53174H13.6524C16.1824 2.53174 17.814 3.74171 18.254 5.94171C18.3365 6.34504 18.3732 6.77587 18.3732 7.25254V11.9734C18.3732 14.9892 16.659 16.7034 13.6524 16.7034ZM5.604 3.92509C3.349 3.92509 2.25817 5.01589 2.25817 7.27089V11.9917C2.25817 13.6326 2.83568 14.6409 4.01818 15.0901C4.20152 15.1543 4.37569 15.2 4.54069 15.2275C4.88902 15.3009 5.22817 15.3375 5.604 15.3375H13.6615C15.9165 15.3375 17.0073 14.2467 17.0073 11.9917V7.27089C17.0073 6.88589 16.9799 6.54672 16.9157 6.23505C16.604 4.67672 15.5407 3.92509 13.6615 3.92509H5.604Z" fill="#292D32"/>
<path d="M16.3962 19.4521H8.33874C7.55957 19.4521 6.8629 19.3421 6.26706 19.113C4.91956 18.6088 4.03955 17.5455 3.73705 16.0238C3.69122 15.7946 3.76457 15.5563 3.92957 15.4005C4.09457 15.2355 4.33291 15.1713 4.56208 15.2263C4.86458 15.2905 5.20374 15.3271 5.58874 15.3271H13.6462C15.9012 15.3271 16.9921 14.2363 16.9921 11.9813V7.26047C16.9921 6.87547 16.9646 6.5363 16.9004 6.22463C16.8546 5.99546 16.9279 5.7663 17.0837 5.6013C17.2487 5.4363 17.4779 5.36296 17.7071 5.41796C19.9071 5.86712 21.1171 7.4988 21.1171 10.0105V14.7313C21.1171 17.738 19.4029 19.4521 16.3962 19.4521ZM5.42375 16.7021C5.71708 17.2338 6.15707 17.6097 6.76207 17.8297C7.20207 17.9947 7.73372 18.0771 8.34789 18.0771H16.4054C18.6604 18.0771 19.7512 16.9863 19.7512 14.7313V10.0105C19.7512 8.56213 19.3021 7.59964 18.3762 7.09547C18.3762 7.15047 18.3762 7.20547 18.3762 7.26047V11.9813C18.3762 14.9788 16.6529 16.7021 13.6554 16.7021H5.59789C5.53372 16.7021 5.47875 16.7021 5.42375 16.7021Z" fill="#292D32"/>
<path d="M9.62411 12.7321C7.90995 12.7321 6.5166 11.3388 6.5166 9.6246C6.5166 7.91044 7.90995 6.51709 9.62411 6.51709C11.3383 6.51709 12.7316 7.91044 12.7316 9.6246C12.7316 11.3388 11.3383 12.7321 9.62411 12.7321ZM9.62411 7.89209C8.67078 7.89209 7.8916 8.67127 7.8916 9.6246C7.8916 10.5779 8.67078 11.3571 9.62411 11.3571C10.5774 11.3571 11.3566 10.5779 11.3566 9.6246C11.3566 8.67127 10.5774 7.89209 9.62411 7.89209Z" fill="#292D32"/>
<path d="M4.38281 12.3297C4.00698 12.3297 3.69531 12.0181 3.69531 11.6422V7.60889C3.69531 7.23305 4.00698 6.92139 4.38281 6.92139C4.75865 6.92139 5.07031 7.23305 5.07031 7.60889V11.6422C5.07031 12.0181 4.76781 12.3297 4.38281 12.3297Z" fill="#292D32"/>
<path d="M14.8604 12.3297C14.4845 12.3297 14.1729 12.0181 14.1729 11.6422V7.60889C14.1729 7.23305 14.4845 6.92139 14.8604 6.92139C15.2362 6.92139 15.5479 7.23305 15.5479 7.60889V11.6422C15.5479 12.0181 15.2454 12.3297 14.8604 12.3297Z" fill="#292D32"/>
</svg>
