<svg width="32" height="33" viewBox="0 0 32 33" fill="none" xmlns="http://www.w3.org/2000/svg">
<path d="M27.196 22.2744C26.8227 23.2744 26.036 24.0344 25.0094 24.381C23.5694 24.861 22.0894 25.221 20.596 25.4744C20.4494 25.501 20.3027 25.5277 20.156 25.541C19.916 25.581 19.676 25.6077 19.436 25.6344C19.1427 25.6744 18.836 25.701 18.5294 25.7277C17.6894 25.7944 16.8627 25.8344 16.0227 25.8344C15.1694 25.8344 14.316 25.7944 13.476 25.7144C13.116 25.6877 12.7694 25.6477 12.4227 25.5944C12.2227 25.5677 12.0227 25.541 11.836 25.5144C11.6894 25.4877 11.5427 25.4744 11.396 25.4477C9.91604 25.2077 8.44937 24.8477 7.02271 24.3677C5.95604 24.0077 5.14271 23.2477 4.78271 22.2744C4.42271 21.3144 4.55604 20.1944 5.12937 19.2344L6.63604 16.7277C6.95604 16.181 7.24937 15.1277 7.24937 14.4877V12.0077C7.24937 7.16771 11.1827 3.23438 16.0227 3.23438C20.8494 3.23438 24.7827 7.16771 24.7827 12.0077V14.4877C24.7827 15.1277 25.076 16.181 25.4094 16.7277L26.916 19.2344C27.4627 20.1677 27.5694 21.261 27.196 22.2744Z" fill="#EE8322"/>
<path d="M16.0026 14.8475C15.4426 14.8475 14.9893 14.3942 14.9893 13.8342V9.70083C14.9893 9.14083 15.4426 8.6875 16.0026 8.6875C16.5626 8.6875 17.0159 9.14083 17.0159 9.70083V13.8342C17.0026 14.3942 16.5493 14.8475 16.0026 14.8475Z" fill="white"/>
<path d="M19.7726 27.18C19.2126 28.7266 17.7326 29.8333 15.9993 29.8333C14.9459 29.8333 13.9059 29.4066 13.1726 28.6466C12.7459 28.2466 12.4259 27.7133 12.2393 27.1666C12.4126 27.1933 12.5859 27.2066 12.7726 27.2333C13.0793 27.2733 13.3993 27.3133 13.7193 27.34C14.4793 27.4066 15.2526 27.4466 16.0259 27.4466C16.7859 27.4466 17.5459 27.4066 18.2926 27.34C18.5726 27.3133 18.8526 27.3 19.1193 27.26C19.3326 27.2333 19.5459 27.2066 19.7726 27.18Z" fill="#EE8322"/>
</svg>
