<svg width="22" height="22" viewBox="0 0 22 22" fill="none" xmlns="http://www.w3.org/2000/svg">
<path d="M10.4039 1.83208L10.404 1.83205C10.79 1.70061 11.2108 1.70058 11.5963 1.83238V1.83237L11.5964 1.83239L17.6845 3.91111L10.4039 1.83208ZM10.4039 1.83208L4.31407 3.91137C3.59312 4.15662 3.10801 4.81922 3.10801 5.56614V11.6507C3.10801 13.529 3.80749 15.3378 5.06682 16.7465C5.66228 17.4139 6.41888 17.9667 7.33174 18.4458L7.33178 18.4458L10.6293 20.1745C10.8642 20.2977 11.1467 20.2976 11.3815 20.1744L14.6732 18.4467L14.6732 18.4467M10.4039 1.83208L14.6732 18.4467M14.6732 18.4467C15.5837 17.9683 16.3404 17.4144 16.9359 16.7468C18.1933 15.339 18.8913 13.5314 18.8913 11.6543V5.56614C18.8913 4.81923 18.4062 4.15667 17.6846 3.91115L14.6732 18.4467ZM11.071 3.2935L11.071 3.29352L17.1607 5.37276L17.1608 5.37279C17.2484 5.4026 17.3036 5.48066 17.3036 5.56614V11.6543C17.3036 13.1557 16.7455 14.602 15.7392 15.7292L15.5594 15.9197C15.1281 16.3521 14.5827 16.7354 13.9203 17.0835L11.0043 18.6132L8.08392 17.0822C7.32389 16.6834 6.7196 16.2401 6.26414 15.7296L6.26408 15.7295C5.25527 14.6011 4.69574 13.1533 4.69574 11.6507V5.56614C4.69574 5.48051 4.75109 5.40255 4.83781 5.37305L4.83791 5.37301L10.928 3.29365C10.9744 3.27785 11.0254 3.27792 11.071 3.2935ZM4.59574 11.6507C4.59574 13.1783 5.1646 14.6497 6.18952 15.7962L4.8056 5.27838C4.67971 5.3212 4.59574 5.43627 4.59574 5.56614V11.6507ZM14.584 9.4143L14.5842 9.41448L14.5887 9.40857C14.8207 9.10474 14.7947 8.67328 14.5117 8.39835C14.2019 8.09737 13.7008 8.09737 13.3911 8.39835L10.3447 11.3577L9.15522 10.2008L9.15541 10.2006L9.14978 10.1959L9.07198 10.1306L9.07215 10.1304L9.0662 10.1261C8.75609 9.90239 8.31647 9.92671 8.03456 10.2005C7.72308 10.503 7.72295 10.9947 8.03426 11.2973L9.78466 12.9989L9.78447 12.9991L9.79008 13.0038L9.8679 13.0691L9.86772 13.0694L9.87368 13.0737C10.1838 13.2974 10.6236 13.273 10.9055 12.9991L14.5117 9.49521L14.5119 9.4954L14.5168 9.48991L14.584 9.4143Z" fill="#0F0F0F" stroke="#0F0F0F" stroke-width="0.2" stroke-linejoin="round"/>
</svg>
