<svg width="22" height="22" viewBox="0 0 22 22" fill="none" xmlns="http://www.w3.org/2000/svg">
<mask id="path-1-outside-1_5298_45538" maskUnits="userSpaceOnUse" x="2.66699" y="0.833496" width="16" height="20" fill="black">
<rect fill="white" x="2.66699" y="0.833496" width="16" height="20"/>
<path d="M9.01122 13.586C10.3347 13.4692 11.6658 13.4692 12.9892 13.586L13.4118 13.6217C13.9898 13.6787 14.5637 13.7679 15.1284 13.8885C16.5679 14.185 17.6132 14.7111 18.0759 15.6868C18.4196 16.4128 18.4196 17.2556 18.0757 17.9819C17.6119 18.9601 16.5531 19.4906 15.1392 19.7695L14.7108 19.8585C14.1382 19.9684 13.5608 20.0434 12.9872 20.0826C11.911 20.1742 10.8297 20.1909 9.78668 20.1336C9.67171 20.1336 9.59454 20.1332 9.52654 20.1316L9.39431 20.1266C9.23354 20.1184 9.08624 20.1016 9.02444 20.0835C8.29878 20.0341 7.57795 19.9291 6.88646 19.7731L6.6519 19.7241C5.3425 19.4332 4.37279 18.9083 3.92424 17.9808C3.75437 17.6209 3.6665 17.2276 3.66701 16.8327C3.66553 16.4349 3.75412 16.042 3.93031 15.675C4.39746 14.7368 5.495 14.1722 6.86691 13.8896C7.5777 13.7372 8.29831 13.6355 9.01122 13.586ZM12.8736 14.9079C11.6271 14.798 10.3734 14.798 9.1147 14.9089C8.45166 14.955 7.79268 15.0481 7.13756 15.1884C6.12294 15.3975 5.34719 15.7965 5.11643 16.2599C5.03145 16.4369 4.98768 16.6311 4.9884 16.831C4.98815 17.0321 5.03251 17.2307 5.11556 17.4067C5.3529 17.8974 6.08491 18.2642 7.15745 18.4744L7.48059 18.5428C8.02178 18.6501 8.57917 18.7241 9.19861 18.7708C9.27684 18.7865 9.36125 18.7962 9.46141 18.8013L9.82221 18.8075C10.8399 18.8625 11.8601 18.8468 12.8864 18.7595C13.5479 18.7141 14.205 18.6188 14.8682 18.4708L15.0744 18.4271C16.0163 18.2135 16.668 17.864 16.8825 17.4117C17.0555 17.0463 17.0555 16.6221 16.8827 16.257C16.6531 15.7729 15.9275 15.4078 14.8583 15.1875C14.2079 15.0486 13.5486 14.9555 12.8852 14.9088L12.8736 14.9079ZM11.0043 1.8335C13.6938 1.8335 15.8741 4.02308 15.8741 6.72407C15.8741 9.42506 13.6938 11.6146 11.0043 11.6146C8.31474 11.6146 6.13445 9.42506 6.13445 6.72407C6.13445 4.02308 8.31474 1.8335 11.0043 1.8335ZM11.0043 3.16053C9.04453 3.16053 7.45585 4.75598 7.45585 6.72407C7.45585 8.69216 9.04453 10.2876 11.0043 10.2876C12.964 10.2876 14.5527 8.69216 14.5527 6.72407C14.5527 4.75598 12.964 3.16053 11.0043 3.16053Z"/>
</mask>
<path d="M9.01122 13.586C10.3347 13.4692 11.6658 13.4692 12.9892 13.586L13.4118 13.6217C13.9898 13.6787 14.5637 13.7679 15.1284 13.8885C16.5679 14.185 17.6132 14.7111 18.0759 15.6868C18.4196 16.4128 18.4196 17.2556 18.0757 17.9819C17.6119 18.9601 16.5531 19.4906 15.1392 19.7695L14.7108 19.8585C14.1382 19.9684 13.5608 20.0434 12.9872 20.0826C11.911 20.1742 10.8297 20.1909 9.78668 20.1336C9.67171 20.1336 9.59454 20.1332 9.52654 20.1316L9.39431 20.1266C9.23354 20.1184 9.08624 20.1016 9.02444 20.0835C8.29878 20.0341 7.57795 19.9291 6.88646 19.7731L6.6519 19.7241C5.3425 19.4332 4.37279 18.9083 3.92424 17.9808C3.75437 17.6209 3.6665 17.2276 3.66701 16.8327C3.66553 16.4349 3.75412 16.042 3.93031 15.675C4.39746 14.7368 5.495 14.1722 6.86691 13.8896C7.5777 13.7372 8.29831 13.6355 9.01122 13.586ZM12.8736 14.9079C11.6271 14.798 10.3734 14.798 9.1147 14.9089C8.45166 14.955 7.79268 15.0481 7.13756 15.1884C6.12294 15.3975 5.34719 15.7965 5.11643 16.2599C5.03145 16.4369 4.98768 16.6311 4.9884 16.831C4.98815 17.0321 5.03251 17.2307 5.11556 17.4067C5.3529 17.8974 6.08491 18.2642 7.15745 18.4744L7.48059 18.5428C8.02178 18.6501 8.57917 18.7241 9.19861 18.7708C9.27684 18.7865 9.36125 18.7962 9.46141 18.8013L9.82221 18.8075C10.8399 18.8625 11.8601 18.8468 12.8864 18.7595C13.5479 18.7141 14.205 18.6188 14.8682 18.4708L15.0744 18.4271C16.0163 18.2135 16.668 17.864 16.8825 17.4117C17.0555 17.0463 17.0555 16.6221 16.8827 16.257C16.6531 15.7729 15.9275 15.4078 14.8583 15.1875C14.2079 15.0486 13.5486 14.9555 12.8852 14.9088L12.8736 14.9079ZM11.0043 1.8335C13.6938 1.8335 15.8741 4.02308 15.8741 6.72407C15.8741 9.42506 13.6938 11.6146 11.0043 11.6146C8.31474 11.6146 6.13445 9.42506 6.13445 6.72407C6.13445 4.02308 8.31474 1.8335 11.0043 1.8335ZM11.0043 3.16053C9.04453 3.16053 7.45585 4.75598 7.45585 6.72407C7.45585 8.69216 9.04453 10.2876 11.0043 10.2876C12.964 10.2876 14.5527 8.69216 14.5527 6.72407C14.5527 4.75598 12.964 3.16053 11.0043 3.16053Z" fill="#0F0F0F"/>
<path d="M9.01122 13.586L9.02508 13.7855L9.0288 13.7852L9.01122 13.586ZM12.9892 13.586L12.9717 13.7852L12.9724 13.7853L12.9892 13.586ZM13.4118 13.6217L13.4314 13.4227L13.4287 13.4224L13.4118 13.6217ZM15.1284 13.8885L15.0867 14.0841L15.0881 14.0844L15.1284 13.8885ZM18.0759 15.6868L18.2566 15.6013L18.2566 15.6012L18.0759 15.6868ZM18.0757 17.9819L18.2564 18.0676L18.2565 18.0675L18.0757 17.9819ZM15.1392 19.7695L15.1004 19.5733L15.0985 19.5737L15.1392 19.7695ZM14.7108 19.8585L14.7485 20.0549L14.7514 20.0543L14.7108 19.8585ZM12.9872 20.0826L12.9736 19.883L12.9703 19.8833L12.9872 20.0826ZM9.78668 20.1336L9.79768 19.9336H9.78668V20.1336ZM9.52654 20.1316L9.51905 20.3315L9.52191 20.3315L9.52654 20.1316ZM9.39431 20.1266L9.38411 20.3264L9.38682 20.3265L9.39431 20.1266ZM9.02444 20.0835L9.08067 19.8915L9.05975 19.8854L9.03799 19.8839L9.02444 20.0835ZM6.88646 19.7731L6.93048 19.578L6.92732 19.5773L6.88646 19.7731ZM6.6519 19.7241L6.60851 19.9194L6.61104 19.9199L6.6519 19.7241ZM3.92424 17.9808L3.74337 18.0662L3.74419 18.0679L3.92424 17.9808ZM3.66701 16.8327L3.86701 16.8329L3.86701 16.8319L3.66701 16.8327ZM3.93031 15.675L3.75126 15.5859L3.75002 15.5885L3.93031 15.675ZM6.86691 13.8896L6.90726 14.0855L6.90882 14.0851L6.86691 13.8896ZM12.8736 14.9079L12.856 15.1072L12.8578 15.1073L12.8736 14.9079ZM9.1147 14.9089L9.12859 15.1084L9.13226 15.1081L9.1147 14.9089ZM7.13756 15.1884L7.17791 15.3843L7.17946 15.384L7.13756 15.1884ZM5.11643 16.2599L4.93738 16.1707L4.93612 16.1733L5.11643 16.2599ZM4.9884 16.831L5.1884 16.8313L5.1884 16.8303L4.9884 16.831ZM5.11556 17.4067L4.93468 17.4921L4.93551 17.4938L5.11556 17.4067ZM7.15745 18.4744L7.19888 18.2787L7.19592 18.2781L7.15745 18.4744ZM7.48059 18.5428L7.43916 18.7385L7.4417 18.739L7.48059 18.5428ZM9.19861 18.7708L9.23799 18.5747L9.22593 18.5723L9.21366 18.5714L9.19861 18.7708ZM9.46141 18.8013L9.45121 19.0012L9.45799 19.0013L9.46141 18.8013ZM9.82221 18.8075L9.83302 18.6076L9.82564 18.6075L9.82221 18.8075ZM12.8864 18.7595L12.8728 18.5599L12.8695 18.5602L12.8864 18.7595ZM14.8682 18.4708L14.8268 18.2751L14.8247 18.2756L14.8682 18.4708ZM15.0744 18.4271L15.1159 18.6228L15.1187 18.6222L15.0744 18.4271ZM16.8825 17.4117L17.0632 17.4974L17.0633 17.4973L16.8825 17.4117ZM16.8827 16.257L17.0634 16.1715L17.0634 16.1714L16.8827 16.257ZM14.8583 15.1875L14.8165 15.3831L14.8179 15.3834L14.8583 15.1875ZM12.8852 14.9088L12.8694 15.1082L12.8712 15.1083L12.8852 14.9088ZM9.0288 13.7852C10.3406 13.6695 11.6599 13.6695 12.9717 13.7852L13.0068 13.3868C11.6717 13.269 10.3288 13.269 8.99365 13.3868L9.0288 13.7852ZM12.9724 13.7853L13.3949 13.821L13.4287 13.4224L13.0061 13.3867L12.9724 13.7853ZM13.3922 13.8208C13.9628 13.877 14.5293 13.9651 15.0867 14.0841L15.1702 13.6929C14.5981 13.5708 14.0168 13.4804 13.4314 13.4227L13.3922 13.8208ZM15.0881 14.0844C16.5119 14.3777 17.4745 14.8855 17.8952 15.7725L18.2566 15.6012C17.7518 14.5367 16.6239 13.9924 15.1688 13.6926L15.0881 14.0844ZM17.8951 15.7724C18.2132 16.4442 18.2132 17.2242 17.895 17.8963L18.2565 18.0675C18.626 17.287 18.626 16.3814 18.2566 15.6013L17.8951 15.7724ZM17.895 17.8962C17.4733 18.7856 16.4972 19.2978 15.1004 19.5733L15.1779 19.9657C16.609 19.6834 17.7505 19.1346 18.2564 18.0676L17.895 17.8962ZM15.0985 19.5737L14.6701 19.6626L14.7514 20.0543L15.1798 19.9653L15.0985 19.5737ZM14.6731 19.662C14.1083 19.7704 13.539 19.8444 12.9736 19.8831L13.0009 20.2821C13.5826 20.2423 14.168 20.1663 14.7485 20.0549L14.6731 19.662ZM12.9703 19.8833C11.9031 19.9742 10.8312 19.9907 9.79767 19.9339L9.7757 20.3333C10.8282 20.3912 11.9189 20.3743 13.0042 20.2819L12.9703 19.8833ZM9.78668 19.9336C9.6718 19.9336 9.59665 19.9332 9.53118 19.9316L9.52191 20.3315C9.59242 20.3332 9.67162 20.3336 9.78668 20.3336V19.9336ZM9.53403 19.9317L9.4018 19.9268L9.38682 20.3265L9.51905 20.3314L9.53403 19.9317ZM9.40451 19.9269C9.24213 19.9186 9.11699 19.9022 9.08067 19.8915L8.9682 20.2754C9.05549 20.301 9.22495 20.3182 9.38411 20.3264L9.40451 19.9269ZM9.03799 19.8839C8.32244 19.8353 7.6118 19.7317 6.93048 19.578L6.84244 19.9682C7.54411 20.1265 8.27513 20.233 9.01088 20.283L9.03799 19.8839ZM6.92732 19.5773L6.69276 19.5284L6.61104 19.9199L6.8456 19.9689L6.92732 19.5773ZM6.69528 19.5289C5.40693 19.2426 4.51277 18.7384 4.10429 17.8938L3.74419 18.0679C4.23282 19.0783 5.27806 19.6238 6.60852 19.9194L6.69528 19.5289ZM4.10511 17.8955C3.94783 17.5623 3.86654 17.1981 3.86701 16.8329L3.46701 16.8324C3.46646 17.257 3.56091 17.6796 3.74338 18.0662L4.10511 17.8955ZM3.86701 16.8319C3.86565 16.4647 3.94735 16.1016 4.11061 15.7616L3.75002 15.5885C3.56089 15.9824 3.46542 16.4051 3.46701 16.8334L3.86701 16.8319ZM4.10935 15.7642C4.53442 14.9104 5.55338 14.3643 6.90726 14.0855L6.82656 13.6937C5.43663 13.98 4.2605 14.5631 3.75128 15.5859L4.10935 15.7642ZM6.90882 14.0851C7.61045 13.9348 8.32169 13.8343 9.02507 13.7855L8.99737 13.3865C8.27494 13.4366 7.54495 13.5397 6.825 13.694L6.90882 14.0851ZM12.8912 14.7087C11.6329 14.5977 10.3674 14.5977 9.09714 14.7096L9.13226 15.1081C10.3793 14.9982 11.6213 14.9982 12.856 15.1071L12.8912 14.7087ZM9.10082 14.7094C8.42831 14.7561 7.75997 14.8505 7.09566 14.9929L7.17946 15.384C7.82539 15.2456 8.475 15.1539 9.12858 15.1084L9.10082 14.7094ZM7.09721 14.9926C6.57645 15.0998 6.11012 15.2572 5.73997 15.4518C5.37482 15.6438 5.08005 15.8843 4.9374 16.1707L5.29545 16.349C5.38357 16.1721 5.59206 15.9815 5.92612 15.8058C6.2552 15.6328 6.68405 15.4861 7.17791 15.3843L7.09721 14.9926ZM4.93612 16.1733C4.83794 16.3779 4.78757 16.6019 4.7884 16.8318L5.1884 16.8303C5.18778 16.6603 5.22496 16.496 5.29674 16.3464L4.93612 16.1733ZM4.7884 16.8308C4.78812 17.061 4.8388 17.2888 4.93469 17.4921L5.29644 17.3214C5.22623 17.1726 5.18819 17.0033 5.1884 16.8313L4.7884 16.8308ZM4.93551 17.4938C5.08037 17.7933 5.36467 18.0337 5.73144 18.2234C6.10044 18.4142 6.57127 18.5633 7.11898 18.6707L7.19592 18.2781C6.67109 18.1753 6.23965 18.0359 5.91517 17.8681C5.58847 17.6992 5.38809 17.5108 5.29561 17.3196L4.93551 17.4938ZM7.11602 18.6701L7.43916 18.7385L7.52201 18.3472L7.19887 18.2787L7.11602 18.6701ZM7.4417 18.739C7.99168 18.848 8.5571 18.923 9.18356 18.9703L9.21366 18.5714C8.60125 18.5252 8.05189 18.4522 7.51948 18.3466L7.4417 18.739ZM9.15923 18.9669C9.24941 18.985 9.34395 18.9956 9.45121 19.001L9.47161 18.6016C9.37855 18.5968 9.30427 18.588 9.23799 18.5747L9.15923 18.9669ZM9.45799 19.0013L9.81879 19.0075L9.82564 18.6075L9.46484 18.6013L9.45799 19.0013ZM9.81141 19.0072C10.8384 19.0627 11.8679 19.0468 12.9034 18.9588L12.8695 18.5602C11.8523 18.6467 10.8414 18.6623 9.83302 18.6078L9.81141 19.0072ZM12.9001 18.959C13.5718 18.913 14.2389 18.8161 14.9118 18.666L14.8247 18.2756C14.1711 18.4214 13.524 18.5153 12.8728 18.5599L12.9001 18.959ZM14.9097 18.6664L15.1159 18.6228L15.033 18.2314L14.8268 18.2751L14.9097 18.6664ZM15.1187 18.6222C15.6013 18.5127 16.0191 18.3665 16.3483 18.1838C16.6756 18.0022 16.9313 17.7755 17.0632 17.4974L16.7018 17.326C16.6192 17.5002 16.4419 17.6744 16.1542 17.8341C15.8685 17.9926 15.4895 18.1279 15.0302 18.2321L15.1187 18.6222ZM17.0633 17.4973C17.2619 17.0777 17.262 16.5907 17.0634 16.1715L16.7019 16.3426C16.8491 16.6535 16.8491 17.0149 16.7018 17.3261L17.0633 17.4973ZM17.0634 16.1714C16.9225 15.8741 16.6411 15.6355 16.2779 15.446C15.9122 15.2552 15.4442 15.104 14.8986 14.9916L14.8179 15.3834C15.3416 15.4913 15.771 15.6327 16.0929 15.8006C16.4171 15.9698 16.6133 16.1558 16.702 16.3427L17.0634 16.1714ZM14.9 14.9919C14.2405 14.8511 13.5719 14.7567 12.8993 14.7093L12.8712 15.1083C13.5252 15.1544 14.1752 15.2462 14.8165 15.3831L14.9 14.9919ZM12.901 14.7095L12.8894 14.7085L12.8578 15.1073L12.8694 15.1082L12.901 14.7095ZM11.0043 2.0335C13.5825 2.0335 15.6741 4.13274 15.6741 6.72407H16.0741C16.0741 3.91343 13.805 1.6335 11.0043 1.6335V2.0335ZM15.6741 6.72407C15.6741 9.31541 13.5825 11.4146 11.0043 11.4146V11.8146C13.805 11.8146 16.0741 9.53472 16.0741 6.72407H15.6741ZM11.0043 11.4146C8.426 11.4146 6.33445 9.31541 6.33445 6.72407H5.93445C5.93445 9.53472 8.20348 11.8146 11.0043 11.8146V11.4146ZM6.33445 6.72407C6.33445 4.13274 8.426 2.0335 11.0043 2.0335V1.6335C8.20348 1.6335 5.93445 3.91343 5.93445 6.72407H6.33445ZM11.0043 2.96053C8.93327 2.96053 7.25585 4.64633 7.25585 6.72407H7.65585C7.65585 4.86563 9.15578 3.36053 11.0043 3.36053V2.96053ZM7.25585 6.72407C7.25585 8.80182 8.93327 10.4876 11.0043 10.4876V10.0876C9.15578 10.0876 7.65585 8.58251 7.65585 6.72407H7.25585ZM11.0043 10.4876C13.0753 10.4876 14.7527 8.80182 14.7527 6.72407H14.3527C14.3527 8.58251 12.8527 10.0876 11.0043 10.0876V10.4876ZM14.7527 6.72407C14.7527 4.64633 13.0753 2.96053 11.0043 2.96053V3.36053C12.8527 3.36053 14.3527 4.86563 14.3527 6.72407H14.7527Z" fill="#0F0F0F" mask="url(#path-1-outside-1_5298_45538)"/>
</svg>
