<svg width="24" height="25" viewBox="0 0 24 25" fill="none" xmlns="http://www.w3.org/2000/svg">
<path opacity="0.4" d="M16.998 20.9995H6.99805C3.99805 20.9995 1.99805 19.4995 1.99805 15.9995V8.99951C1.99805 5.49951 3.99805 3.99951 6.99805 3.99951H16.998C19.998 3.99951 21.998 5.49951 21.998 8.99951V15.9995C21.998 19.4995 19.998 20.9995 16.998 20.9995Z" fill="#3F8BCA"/>
<path d="M11.9949 13.37C11.1549 13.37 10.3049 13.11 9.6549 12.58L6.52489 10.08C6.20489 9.81997 6.1449 9.34997 6.4049 9.02997C6.6649 8.70997 7.1349 8.64997 7.4549 8.90997L10.5849 11.41C11.3449 12.02 12.6349 12.02 13.3949 11.41L16.5249 8.90997C16.8449 8.64997 17.3249 8.69997 17.5749 9.02997C17.8349 9.34997 17.7849 9.82997 17.4549 10.08L14.3249 12.58C13.6849 13.11 12.8349 13.37 11.9949 13.37Z" fill="#3F8BCA"/>
</svg>
