<svg width="40" height="40" viewBox="0 0 40 40" fill="none" xmlns="http://www.w3.org/2000/svg">
<path opacity="0.4" d="M29.9664 17.9833V24.65C29.9664 25.0833 29.9497 25.5 29.8997 25.9C29.5163 30.4 26.8663 32.6333 21.983 32.6333H21.3164C20.8997 32.6333 20.4997 32.8333 20.2497 33.1667L18.2497 35.8333C17.3664 37.0167 15.933 37.0167 15.0497 35.8333L13.0497 33.1667C12.833 32.8833 12.3497 32.6333 11.983 32.6333H11.3164C5.99969 32.6333 3.33301 31.3167 3.33301 24.65V17.9833C3.33301 13.1 5.58302 10.45 10.0664 10.0667C10.4664 10.0167 10.883 10 11.3164 10H21.983C27.2997 10 29.9664 12.6667 29.9664 17.9833Z" fill="#EE8322"/>
<path d="M16.6559 23.3333C15.7226 23.3333 14.9893 22.5833 14.9893 21.6667C14.9893 20.75 15.7393 20 16.6559 20C17.5726 20 18.3226 20.75 18.3226 21.6667C18.3226 22.5833 17.5893 23.3333 16.6559 23.3333Z" fill="#EE8322"/>
<path d="M22.487 23.3333C21.5536 23.3333 20.8203 22.5833 20.8203 21.6667C20.8203 20.75 21.5703 20 22.487 20C23.4036 20 24.1536 20.75 24.1536 21.6667C24.1536 22.5833 23.4036 23.3333 22.487 23.3333Z" fill="#EE8322"/>
<path d="M10.8356 23.3333C9.90228 23.3333 9.16895 22.5833 9.16895 21.6667C9.16895 20.75 9.91895 20 10.8356 20C11.7523 20 12.5023 20.75 12.5023 21.6667C12.5023 22.5833 11.7523 23.3333 10.8356 23.3333Z" fill="#EE8322"/>
<path d="M36.6321 11.3167V17.9834C36.6321 22.8834 34.3821 25.5167 29.8988 25.9001C29.9488 25.5001 29.9654 25.0834 29.9654 24.6501V17.9834C29.9654 12.6667 27.2988 10 21.9821 10H11.3154C10.8821 10 10.4654 10.0167 10.0654 10.0667C10.4488 5.58339 13.0988 3.33337 17.9821 3.33337H28.6488C33.9654 3.33337 36.6321 6.00005 36.6321 11.3167Z" fill="#EE8322"/>
</svg>
